<svg width="72" height="72" viewBox="0 0 72 72" fill="none" xmlns="http://www.w3.org/2000/svg">
<g clip-path="url(#clip0_26_260)">
<path d="M68.277 0H3.72296C1.66683 0 0 1.66683 0 3.72296V68.277C0 70.3332 1.66683 72 3.72296 72H68.277C70.3332 72 72 70.3332 72 68.277V3.72296C72 1.66683 70.3332 0 68.277 0Z" fill="#C52031"/>
<path d="M46.0281 2.5481H25.9787C24.3452 2.5481 23.0209 3.87238 23.0209 5.50597V51.6912C23.0209 53.3248 24.3452 54.649 25.9787 54.649H46.0281C47.6617 54.649 48.986 53.3248 48.986 51.6912V5.50597C48.986 3.87238 47.6617 2.5481 46.0281 2.5481Z" fill="white"/>
<path d="M24.4896 61.2137C24.2104 60.9352 23.8873 60.7044 23.5332 60.5306C23.1401 60.385 22.7228 60.3154 22.3036 60.3257C21.4446 60.3153 20.614 60.6329 19.9811 61.2137C19.6579 61.5046 19.4042 61.8643 19.2387 62.2663C19.0732 62.6682 19 63.1023 19.0247 63.5363C19.0327 64.4047 19.3753 65.2366 19.9811 65.8589C20.6271 66.4183 21.4492 66.7327 22.3036 66.7469C23.1721 66.7389 24.0039 66.3964 24.6262 65.7906C24.9397 65.4875 25.1743 65.1122 25.3093 64.6976C25.4492 64.3029 25.5185 63.8867 25.5143 63.468C25.5054 63.0424 25.4101 62.623 25.2339 62.2354C25.0577 61.8479 24.8045 61.5003 24.4896 61.2137ZM21.0057 65.5173C20.6569 64.9193 20.5129 64.2237 20.5959 63.5363C20.5896 62.8543 20.7294 62.1789 21.0057 61.5553C21.1468 61.357 21.3304 61.1927 21.5432 61.0745C21.7559 60.9563 21.9924 60.8872 22.2353 60.8722C22.4923 60.8637 22.7471 60.9222 22.9747 61.042C23.2022 61.1617 23.3947 61.3386 23.5332 61.5553C23.8821 62.1533 24.026 62.849 23.9431 63.5363C23.9431 65.3807 23.3966 66.2688 22.167 66.2688C21.708 66.1525 21.2999 65.8884 21.0057 65.5173Z" fill="white"/>
<path d="M32.9601 65.9271C32.8376 65.9073 32.721 65.8606 32.6186 65.7904C32.482 65.6538 32.4136 65.6538 32.4136 65.5855V62.1016C32.4408 61.8344 32.4046 61.5645 32.3079 61.3139C32.2112 61.0633 32.0568 60.839 31.8571 60.6593C31.6574 60.4796 31.4182 60.3495 31.1588 60.2797C30.8994 60.2098 30.6272 60.2021 30.3643 60.2572C29.9723 60.2492 29.5837 60.3312 29.2284 60.497C28.8731 60.6628 28.5606 60.908 28.315 61.2136V60.6671C28.315 60.5305 28.315 60.1206 27.9734 60.1206C27.8289 60.1375 27.6893 60.184 27.5635 60.2572C27.2805 60.373 26.9806 60.4422 26.6755 60.4622C26.2656 60.5988 26.129 60.6671 26.129 60.8037C26.129 60.9403 26.334 61.0087 26.4706 61.0087C26.6072 61.0087 26.8121 61.0087 26.8121 61.1453C26.9488 61.2819 27.0171 61.2819 27.0171 61.3502V65.4489C27.0171 65.5855 26.8805 65.5855 26.8121 65.6538C26.7438 65.7221 26.6072 65.7904 26.4706 65.7904C26.334 65.7904 26.129 65.9271 26.129 65.9954C26.129 66.0637 26.129 66.2003 26.4706 66.2003H29.1347C29.4763 66.2003 29.4763 66.0637 29.4763 65.9954C29.4763 65.9271 29.3397 65.7904 29.1347 65.6538C29.0122 65.6341 28.8955 65.5874 28.7932 65.5172C28.5882 65.7221 28.4516 65.6538 28.4516 65.6538V62.7164C28.4295 62.2488 28.5748 61.7886 28.8615 61.4185C28.9966 61.2575 29.1633 61.126 29.3513 61.032C29.5393 60.938 29.7446 60.8836 29.9544 60.872C30.7059 60.872 31.0474 61.2819 31.0474 62.1699V65.5172C31.0474 65.6538 30.9108 65.6538 30.8425 65.7221C30.7742 65.7904 30.6376 65.8587 30.5009 65.8587C30.3643 65.8587 30.1594 65.9954 30.1594 66.0637C30.1594 66.132 30.1594 66.2686 30.5009 66.2686H33.1856C33.5271 66.2686 33.5271 66.132 33.5271 66.0637C33.2334 66.132 33.2334 66.0637 32.9601 65.9271Z" fill="white"/>
<path d="M62.7438 65.5856C62.6196 65.5991 62.5014 65.6464 62.4022 65.7223C62.2656 65.8589 62.1973 65.8589 62.1973 65.8589C62.0607 65.8589 61.8557 65.8589 61.8557 65.3124V62.0335C61.8557 60.9405 61.1043 60.394 59.4649 60.394C58.8554 60.3814 58.2501 60.4978 57.6888 60.7355C57.5054 60.8082 57.345 60.929 57.2248 61.0854C57.1045 61.2417 57.0288 61.4277 57.0056 61.6236C57.0056 62.0335 57.2106 62.1701 57.5521 62.1701C57.7474 62.1439 57.9343 62.0739 58.0986 61.9652C58.0986 61.8285 58.2353 61.7602 58.2353 61.4187C58.2353 61.282 58.3719 60.8722 59.1916 60.8722C60.0113 60.8722 60.2846 61.2137 60.2846 61.7602V62.7166C57.8937 63.6046 56.6641 64.4927 56.6641 65.3124C56.6522 65.4928 56.6832 65.6735 56.7544 65.8397C56.8256 66.0059 56.9351 66.1529 57.074 66.2688C57.3891 66.503 57.7745 66.6234 58.1669 66.6103C58.975 66.5699 59.7455 66.2568 60.3529 65.7223C60.4498 65.9311 60.5894 66.1173 60.7628 66.2688C60.967 66.4649 61.2321 66.5854 61.5142 66.6103C61.6568 66.6117 61.7979 66.5818 61.9277 66.5228C62.0576 66.4638 62.1729 66.3771 62.2656 66.2688C62.4705 66.0638 62.6072 65.9272 62.6072 65.7223C63.017 65.7223 62.8804 65.5856 62.7438 65.5856ZM60.5578 64.8342C60.5578 65.0392 60.4212 65.2441 60.148 65.5173C59.8629 65.7096 59.534 65.8271 59.1916 65.8589C58.9963 65.8327 58.8095 65.7627 58.6451 65.654C58.5666 65.5598 58.508 65.4507 58.4728 65.3333C58.4376 65.216 58.4265 65.0927 58.4402 64.9709C58.4402 64.2877 59.1916 63.6729 60.6262 63.1264C60.5693 63.6938 60.5465 64.2641 60.5578 64.8342Z" fill="white"/>
<path d="M39.9279 59.7109L39.2447 59.301H39.1081C38.9032 59.4376 38.7666 59.506 38.6983 59.6426C38.6299 59.7792 38.3567 59.8475 38.2884 59.9841C38.2201 60.1208 37.9468 60.1891 37.7419 60.1891C37.5188 60.2552 37.2902 60.3009 37.0588 60.3257H36.6011C35.9203 60.3012 35.2573 60.5467 34.7567 61.0088C34.5336 61.2038 34.3567 61.4459 34.2385 61.7176C34.1204 61.9893 34.0641 62.2838 34.0736 62.58C34.0736 63.0234 34.2174 63.4548 34.4834 63.8096C34.7196 64.0526 34.9705 64.2807 35.2349 64.4927C34.9568 64.5533 34.7087 64.7095 34.5339 64.9342C34.3592 65.1589 34.2688 65.4378 34.2785 65.7223C34.2764 65.9335 34.3415 66.1399 34.4642 66.3118C34.587 66.4836 34.7612 66.6121 34.9616 66.6786C35.5161 66.9384 36.1265 67.0558 36.7377 67.0202C37.2908 67.0168 37.842 67.0857 38.3772 67.2251C38.7187 67.3617 38.7871 67.635 38.7871 68.1132C38.7989 68.2936 38.768 68.4743 38.6967 68.6405C38.6255 68.8067 38.516 68.9537 38.3772 69.0695C37.9194 69.3252 37.3977 69.4438 36.8743 69.4111C36.3732 69.4379 35.8751 69.3193 35.4398 69.0695C35.2803 68.9807 35.1462 68.8524 35.0505 68.6969C34.9548 68.5414 34.9007 68.3639 34.8933 68.1815C34.8791 67.9458 34.9261 67.7104 35.0299 67.4984L35.3715 67.1568H35.4398V67.0202C35.4398 66.8153 35.2349 66.6786 34.8933 66.6786C34.7507 66.6773 34.6096 66.7071 34.4798 66.7661C34.3499 66.8251 34.2346 66.9119 34.1419 67.0202C33.9197 67.2623 33.7977 67.5797 33.8003 67.9082C33.8183 68.1866 33.8945 68.4581 34.0239 68.7052C34.1534 68.9523 34.3332 69.1695 34.5518 69.3428C35.1693 69.7155 35.88 69.905 36.6011 69.8893C37.432 69.9459 38.2558 69.7036 38.9237 69.2061C39.2026 69.0024 39.4288 68.7349 39.5833 68.4259C39.7378 68.1169 39.8161 67.7755 39.8117 67.4301C39.848 67.1142 39.7972 66.7945 39.6647 66.5055C39.5322 66.2165 39.3232 65.9693 39.0603 65.7906C38.3636 65.3668 37.5503 65.1754 36.7377 65.2441C35.0983 65.2441 35.0982 65.0392 35.0982 64.9025C35.0982 64.7659 35.0982 64.6976 35.4398 64.561C35.8348 64.4264 36.2545 64.3797 36.6694 64.4244C37.3279 64.4523 37.9768 64.26 38.5138 63.8779C38.7301 63.6921 38.9033 63.4614 39.0213 63.2018C39.1392 62.9423 39.1992 62.6601 39.1969 62.375C39.1802 61.8704 39.0394 61.3778 38.7871 60.9405C38.6504 60.8039 38.6504 60.7356 38.5821 60.7356H38.4455C38.3089 60.5989 38.2406 60.5989 38.2406 60.5306C38.3772 60.5306 38.5821 60.394 38.6504 60.394C38.8554 60.394 38.992 60.2574 39.1969 60.1891C39.4018 60.1208 39.5385 60.0524 39.7434 59.9841H39.9483C40.1533 59.9841 40.1533 59.8475 40.1533 59.7792C40.0645 59.9158 40.0645 59.8475 39.9279 59.7109ZM35.6926 63.8779C35.4687 63.4819 35.351 63.0348 35.351 62.58C35.351 62.1251 35.4687 61.678 35.6926 61.282C35.7597 61.1441 35.8681 61.0305 36.0028 60.957C36.1374 60.8835 36.2917 60.8539 36.444 60.8722C36.6145 60.8604 36.7853 60.8918 36.9405 60.9635C37.0957 61.0351 37.2303 61.1447 37.332 61.282C37.5746 61.6701 37.6937 62.1227 37.6736 62.58C37.6837 63.0361 37.5654 63.4858 37.332 63.8779C37.2362 64.0214 37.1025 64.1357 36.9458 64.208C36.7891 64.2804 36.6154 64.308 36.444 64.2877C36.1561 64.2351 35.8927 64.0915 35.6926 63.8779Z" fill="white"/>
<path d="M47.9887 65.1758L47.9203 65.3124C47.7309 65.5242 47.4995 65.6944 47.2407 65.812C46.982 65.9296 46.7017 65.9921 46.4175 65.9955C46.1605 66.004 45.9057 65.9455 45.6781 65.8257C45.4506 65.7059 45.2581 65.5291 45.1196 65.3124C44.7375 64.7754 44.5452 64.1264 44.5731 63.468C44.5669 62.786 44.7066 62.1105 44.983 61.487C45.1321 61.2809 45.3269 61.1121 45.552 60.9936C45.7771 60.8751 46.0266 60.8102 46.2809 60.8038C46.6224 60.8038 46.6907 60.9405 46.8274 60.9405C46.9288 61.0578 46.9993 61.1987 47.0323 61.3503C47.0778 61.4894 47.1719 61.6075 47.2974 61.6827C47.4229 61.758 47.5713 61.7855 47.7154 61.7602C47.7887 61.7664 47.8626 61.7566 47.9317 61.7313C48.0008 61.7061 48.0636 61.666 48.1157 61.614C48.1677 61.5619 48.2077 61.4991 48.233 61.43C48.2583 61.3609 48.2681 61.2871 48.2619 61.2137C48.2619 60.8722 48.057 60.6672 47.7154 60.4623C47.3091 60.2785 46.8607 60.2077 46.4175 60.2574C45.5562 60.234 44.7209 60.5534 44.0949 61.1454C43.7454 61.4367 43.4658 61.8028 43.2766 62.2166C43.0874 62.6304 42.9936 63.0814 43.0019 63.5363C42.9785 64.3976 43.298 65.2329 43.89 65.8589C44.185 66.1248 44.5307 66.3284 44.9063 66.4575C45.2819 66.5866 45.6798 66.6386 46.0759 66.6103H46.4175C46.8068 66.6257 47.1906 66.514 47.511 66.2922C47.8313 66.0705 48.0709 65.7505 48.1936 65.3807V65.3124L47.9887 65.1758Z" fill="white"/>
<path d="M55.981 65.9272C55.8544 65.9243 55.7331 65.8758 55.6394 65.7906C55.5028 65.654 55.4345 65.654 55.4345 65.5857V62.1018C55.4523 61.8577 55.4121 61.6128 55.3171 61.3872C55.2221 61.1616 55.0751 60.9617 54.888 60.8039C54.4605 60.4748 53.9205 60.3275 53.3852 60.394C53.0092 60.3821 52.6355 60.4559 52.2923 60.6097C51.9491 60.7636 51.6454 60.9935 51.4042 61.2821V57.2517C51.4042 56.9102 51.1992 56.9102 51.1992 56.9102C50.9943 56.9102 50.7893 57.0468 50.5161 57.0468C50.4522 57.0384 50.3873 57.0465 50.3275 57.0704C50.2676 57.0944 50.215 57.1333 50.1745 57.1834L49.0816 57.32C49.0453 57.32 49.0106 57.3344 48.985 57.36C48.9593 57.3857 48.9449 57.4204 48.9449 57.4566V57.5933L49.2865 57.9348H49.4231C49.628 57.9348 49.9696 57.9348 50.1062 58.1398V65.7223C50.1062 65.8589 49.9696 65.8589 49.9013 65.9272C49.7771 65.9407 49.659 65.9879 49.5597 66.0639C49.4231 66.0639 49.2182 66.2005 49.2182 66.2688C49.2182 66.3371 49.2182 66.4737 49.5597 66.4737H52.2239C52.5654 66.4737 52.5654 66.3371 52.5654 66.2688C52.5654 66.2005 52.4288 66.0639 52.2239 65.9272C52.0973 65.9243 51.976 65.8758 51.8823 65.7906C51.4725 65.7906 51.4724 65.654 51.4724 65.654V62.7166C51.4503 62.249 51.5956 61.7888 51.8823 61.4187C52.0175 61.2577 52.1842 61.1262 52.3722 61.0322C52.5602 60.9382 52.7654 60.8837 52.9753 60.8722C53.7267 60.8722 54.0683 61.2821 54.0683 62.1701V65.5174C54.0683 65.654 53.9317 65.654 53.8633 65.7223C53.7391 65.7357 53.621 65.783 53.5218 65.8589C53.3852 65.8589 53.1802 65.9955 53.1802 66.0639C53.1802 66.1322 53.1802 66.2688 53.5218 66.2688H56.1859C56.5275 66.2688 56.5275 66.1322 56.5275 66.0639C56.4324 66.0907 56.3319 66.0922 56.2361 66.0682C56.1402 66.0442 56.0523 65.9956 55.981 65.9272Z" fill="white"/>
<path d="M18.2732 62.5798C17.7696 62.5882 17.2673 62.6339 16.7704 62.7164H15.1992C14.8577 62.7164 14.7893 62.8531 14.7893 62.9214C14.7893 63.1263 15.1309 63.1263 15.1992 63.2629C15.5408 63.2629 15.5408 63.3995 15.5408 63.3995C15.6791 63.5004 15.7894 63.6349 15.8611 63.7903C15.9329 63.9457 15.9637 64.1169 15.9506 64.2876C15.9738 64.5627 15.937 64.8396 15.8426 65.0991C15.7483 65.3586 15.5987 65.5945 15.4041 65.7904C14.9318 66.1351 14.3437 66.2822 13.7647 66.2003C13.355 66.2283 12.9457 66.1406 12.5834 65.9474C12.2211 65.7542 11.9203 65.4631 11.7153 65.1073C11.1556 64.2344 10.8921 63.2044 10.9639 62.1699C10.8694 61.0256 11.1319 59.88 11.7153 58.891C11.9782 58.527 12.3292 58.2358 12.7355 58.0446C13.1417 57.8534 13.5899 57.7686 14.0379 57.798C14.5831 57.7586 15.1243 57.9162 15.5631 58.2421C16.0019 58.5681 16.3091 59.0408 16.4288 59.5741C16.4288 59.7107 16.5654 59.779 16.5654 59.9157C16.5654 60.0523 16.7021 60.2572 16.7704 60.2572C16.7975 60.2582 16.8246 60.2535 16.8499 60.2436C16.8752 60.2336 16.8982 60.2185 16.9174 60.1993C16.9366 60.1801 16.9517 60.1571 16.9616 60.1318C16.9716 60.1065 16.9762 60.0795 16.9753 60.0523L17.1119 58.6178V57.5248L16.7021 57.3882V57.5248C16.7021 57.7297 16.5654 57.8663 16.5654 57.9346H16.4288C16.0718 57.7793 15.707 57.6425 15.3358 57.5248C14.8482 57.3804 14.3415 57.3113 13.833 57.3198C13.1917 57.2799 12.5498 57.3886 11.9573 57.6374C11.3649 57.8862 10.8379 58.2685 10.4174 58.7544C9.96225 59.2351 9.61183 59.8052 9.38841 60.4284C9.16499 61.0516 9.07343 61.7144 9.11951 62.3749C9.09737 62.955 9.19515 63.5335 9.40672 64.0742C9.61828 64.6149 9.9391 65.1061 10.3491 65.5172C11.232 66.2996 12.3806 66.7151 13.5597 66.6785C14.1895 66.6707 14.8133 66.5552 15.4041 66.3369C15.814 66.132 16.1556 65.9271 16.6337 65.6538C16.7704 65.5172 16.8387 65.5172 17.0436 65.5172H17.7267V64.2876C17.7267 63.946 17.7267 63.7411 17.8634 63.6045C17.8634 63.4679 18 63.3995 18.0683 63.2629C18.1366 63.1263 18.2732 63.1263 18.4781 63.1263C18.5666 63.1199 18.6499 63.0819 18.7126 63.0192C18.7753 62.9565 18.8134 62.8732 18.8197 62.7847C18.7514 62.6481 18.6148 62.5798 18.2732 62.5798Z" fill="white"/>
<path d="M40.3651 13.3275C40.1609 13.0661 39.873 12.8827 39.5497 12.8081C39.2264 12.7335 38.8873 12.7721 38.5891 12.9176C37.7516 12.8042 36.9063 12.7585 36.0615 12.781H34.8319C34.2854 12.9859 32.8509 12.781 32.1678 12.9859C31.7145 13.4862 31.3953 14.0931 31.24 14.7501C31.0847 15.4071 31.0984 16.0928 31.2797 16.7431C30.8699 18.041 31.6213 20.91 32.5094 21.9347C32.7143 21.9347 32.9192 22.4812 33.6023 22.4812C33.746 22.541 33.865 22.6481 33.9395 22.7848C34.0141 22.9214 34.0397 23.0794 34.0122 23.2326C33.6706 24.189 33.4657 25.3503 33.2608 26.17C32.9192 26.7165 32.7143 27.7412 32.3727 28.0144C32.2945 28.1919 32.266 28.3873 32.29 28.5798C32.3141 28.7722 32.3899 28.9546 32.5094 29.1074C32.7143 29.1074 32.8509 28.9708 32.9192 28.9708C33.8756 27.3996 34.2171 25.6918 34.6953 23.9157C34.9002 23.3692 34.6953 23.1643 35.1052 22.8227C35.2313 22.7014 35.3818 22.6081 35.5467 22.5493C35.7115 22.4904 35.887 22.4672 36.0615 22.4812C36.3655 22.418 36.6789 22.4156 36.9838 22.4743C37.2886 22.5329 37.5788 22.6513 37.8376 22.8227C38.2475 24.2573 38.3841 25.7601 39.0672 27.1264C39.6137 27.8095 39.4771 28.9024 40.5018 29.244C40.7067 29.1074 40.3651 29.0391 40.5018 28.9024C40.8433 27.8095 39.9553 27.058 39.6137 26.17C39.2722 25.282 39.0672 24.189 38.7257 23.3009C38.589 22.8911 38.5207 22.3446 39.0672 22.0713C39.4771 21.8664 40.1602 21.7298 40.3651 21.115C40.9116 20.5685 40.775 19.4755 41.0483 18.7241C41.3282 17.9598 41.4446 17.1453 41.3898 16.3332C41.2532 15.3085 41.5948 13.8057 40.3651 13.3275ZM33.3291 13.874C34.2171 13.874 35.1052 13.669 36.1982 13.7374H36.3348C37.4951 13.8057 38.6584 13.8057 39.8186 13.7374C39.9114 13.8347 39.9814 13.9513 40.0236 14.0789C40.1602 14.4888 40.0236 15.0353 40.1602 15.5135C39.7503 15.7184 39.2038 15.3768 38.7257 15.3768C38.2475 15.3768 37.1545 15.5135 36.1982 15.5818C35.6614 15.7275 35.0955 15.7275 34.5587 15.5818C34.1488 15.7867 33.6706 15.4451 33.2608 15.7867C33.0558 15.5818 32.7143 15.9916 32.5094 15.6501C32.0312 14.967 32.7826 14.3522 33.3291 13.874ZM39.2722 20.8417C38.5891 20.8417 38.0426 21.3882 37.4278 21.3882C37.0113 21.5326 36.5672 21.5794 36.1298 21.5248C35.5834 21.5248 34.9003 21.5248 34.8319 21.3882C34.1488 21.5932 33.6023 21.0467 33.1925 20.6368C33.0559 20.2269 32.646 19.5438 32.7826 19.0656C33.739 18.7241 35.1052 18.929 36.1982 18.8607C36.4031 18.8607 36.7447 18.7241 36.8813 18.7241C37.5644 19.0656 39.9553 18.7241 40.1602 18.7241C39.9553 19.4072 40.1602 20.8417 39.2722 20.8417ZM40.0919 17.836C38.838 17.8121 37.5837 17.8577 36.3348 17.9727H36.1982C35.6517 17.836 33.2608 17.9727 32.7826 18.3142C32.441 18.1093 32.5777 17.5628 32.441 17.0846C32.3044 16.6064 32.9875 16.7431 33.3291 16.5381C33.6706 16.7431 34.9686 16.7431 36.1982 16.6747C37.4278 16.6064 38.9306 16.3332 39.1355 16.3332C39.206 16.2841 39.286 16.2504 39.3703 16.2341C39.4546 16.2179 39.5413 16.2194 39.625 16.2387C39.7087 16.258 39.7874 16.2947 39.856 16.3462C39.9247 16.3978 39.9817 16.4632 40.0236 16.5381C40.0919 16.948 40.3651 17.4945 40.0919 17.836Z" fill="#C52031"/>
<path d="M43.9856 11.1414C43.8489 10.7316 38.5207 10.595 37.2911 10.7999C36.7446 10.39 37.4277 9.57028 37.2911 9.02379C37.496 8.13575 40.0235 8.34068 40.7749 8.34068C41.458 8.54561 42.0729 8.34068 42.756 8.54561C42.9609 8.40899 43.644 8.54561 43.644 8.20406C43.5074 7.65757 42.9609 7.65757 42.551 7.52095C40.7749 7.65757 38.9305 7.52094 37.0861 7.65757H36.1298C34.1466 7.76237 32.158 7.69381 30.1867 7.45264C29.8451 7.65757 29.0937 7.65757 29.2303 8.20406C29.367 8.20406 29.367 8.34068 29.4353 8.34068C29.6693 8.45169 29.9285 8.49883 30.1867 8.4773C31.6212 8.81886 34.3537 8.34068 35.9248 8.61392C36.0406 8.89695 36.1098 9.19684 36.1298 9.50197C36.1298 9.84353 36.1298 10.595 35.9248 10.7999C34.9685 10.595 31.6212 10.4583 30.5282 10.9365C29.6838 10.7569 28.8052 10.8281 28.0007 11.1414C27.963 11.2118 27.942 11.29 27.9394 11.3698C27.9367 11.4496 27.9526 11.5289 27.9856 11.6016C28.0187 11.6744 28.068 11.7384 28.1299 11.789C28.1918 11.8395 28.2645 11.875 28.3423 11.8929C29.2303 12.0295 31.4163 11.5513 32.5093 11.6879C33.3973 11.483 35.0368 11.6879 36.1298 11.6879C36.4995 11.7145 36.8709 11.668 37.2228 11.5513C38.1791 11.4147 43.0292 11.7562 43.8489 11.5513C43.9855 11.483 44.1153 11.3464 43.9856 11.1414Z" fill="#C52031"/>
<path d="M40.0918 33.7525V31.225C40.0918 31.225 39.9552 31.0884 39.8869 31.0884H39.3335C39.3424 31.2375 39.2935 31.3843 39.1969 31.4983V32.1814C39.1969 32.3863 39.0603 32.7278 39.0603 32.9328C39.081 33.2353 39.0343 33.5386 38.9237 33.8208C38.5138 34.0258 37.8307 34.1624 37.6258 33.0694V31.5666L37.2842 31.225H36.6011V33.0011C36.5881 33.1931 36.6359 33.3843 36.7377 33.5476C36.8356 33.7173 36.9048 33.9019 36.9427 34.0941C36.9427 34.299 37.0793 34.4356 37.0793 34.5039C37.1254 34.5692 37.187 34.6221 37.2585 34.6579C37.33 34.6936 37.4092 34.7111 37.4891 34.7089C37.6258 34.8455 37.8307 34.8455 38.0356 34.9138C38.2287 34.8853 38.4252 34.9344 38.5821 35.0504C38.7871 35.0504 38.9237 35.0504 38.992 35.1871V35.6652C38.992 35.7335 38.992 35.8018 39.1286 35.8018L39.3335 36.0068H39.5385L39.88 35.8702C39.88 35.6652 40.0167 35.3237 40.0167 35.1187C40.1533 35.1187 40.1533 35.2554 40.2216 35.2554H41.1096C41.3146 35.2554 41.4512 35.1187 41.6561 34.9138C41.8822 34.6222 42.0661 34.3002 42.2026 33.9574C42.3699 33.5464 42.4401 33.1022 42.4076 32.6595C42.4389 32.3344 42.392 32.0065 42.2709 31.7032C42.1343 31.5666 42.1343 31.5666 42.1343 31.4983L41.9977 31.3616H41.5878C41.5878 31.4982 41.4512 31.5666 41.4512 31.7032C41.4512 31.8398 41.3146 31.9081 41.3146 32.0447C41.3146 32.1814 41.4512 32.3863 41.4512 32.5912C41.4052 32.825 41.3365 33.0538 41.2463 33.2743C41.0482 34.299 40.6383 33.8891 40.0918 33.7525Z" fill="#C52031"/>
<path d="M34.3537 42.5647H33.8687C33.8325 42.5647 33.7978 42.5791 33.7721 42.6047C33.7465 42.6303 33.7321 42.6651 33.7321 42.7013C33.7321 42.8379 33.5955 42.8379 33.5955 42.9063C33.6044 43.0554 33.5554 43.2022 33.4589 43.3161C33.3548 43.9152 33.2179 44.5081 33.049 45.0922C32.9542 45.4273 32.8164 45.7488 32.6391 46.0486C32.4059 46.5003 32.1065 46.9147 31.7511 47.2782C31.4095 47.6197 30.863 47.9613 30.6581 48.1662C30.4546 48.3231 30.2226 48.4391 29.975 48.5078C29.975 48.6444 29.8384 48.6444 29.8384 48.7127V49.3958C29.9357 49.4886 30.0523 49.5585 30.1799 49.6008C30.2438 49.6092 30.3088 49.601 30.3686 49.5771C30.4284 49.5532 30.481 49.5143 30.5215 49.4641C30.6581 49.4641 30.7264 49.3275 30.9314 49.2592C31.1363 49.1909 31.2729 49.0543 31.4778 48.9176C31.6828 48.781 31.6828 48.7127 31.8194 48.7127C32.0953 48.3759 32.3919 48.0565 32.7074 47.7563C32.872 47.5574 33.055 47.3744 33.2539 47.2099C33.4297 47.008 33.5684 46.7768 33.6638 46.5267C33.9576 45.9623 34.1868 45.3665 34.3469 44.7507C34.4658 44.3508 34.5346 43.9378 34.5518 43.521V42.633C34.4152 42.7013 34.4152 42.7013 34.3469 42.5647H34.3537Z" fill="#C52031"/>
<path d="M39.7503 41.8134H40.6383C41.0482 41.8134 41.3898 41.6768 41.5947 41.6768C43.5757 40.9936 41.5947 40.7204 40.6383 41.1303H36.8812V40.7887C36.8812 40.5838 36.7446 39.9007 36.7446 39.6957C36.7446 39.4908 36.8812 39.3542 36.8812 39.1492V38.8077C36.8812 38.3978 37.0178 38.1246 36.8812 37.9196C36.7057 37.7106 36.4652 37.5663 36.1981 37.5098C36.0615 37.5098 35.8566 37.8513 35.7882 38.0563C35.7536 38.3513 35.7536 38.6493 35.7882 38.9443L35.9249 41.062C35.1735 41.062 34.0805 41.2669 33.0558 41.1986H32.6459C32.0666 41.0488 31.4653 41.0026 30.8698 41.062C30.3233 41.1986 29.9135 41.4718 30.8698 41.8134C31.0748 41.8134 31.2114 41.95 31.5529 41.95H35.7882V49.3276C35.7882 49.4642 35.7883 49.4642 35.9249 49.5325L36.0615 49.6692C36.0977 49.6692 36.1325 49.6836 36.1581 49.7092C36.1837 49.7348 36.1981 49.7695 36.1981 49.8058H36.5397C36.6763 49.8058 36.7446 49.6692 36.8812 49.6009V42.0183H39.2038C39.2741 41.9459 39.3596 41.89 39.4541 41.8545C39.5486 41.8191 39.6497 41.805 39.7503 41.8134Z" fill="#C52031"/>
<path d="M30.9381 38.7392C31.1962 38.703 31.4487 38.6341 31.6895 38.5343C31.8592 38.4364 32.0438 38.3672 32.236 38.3294C32.5776 38.1927 32.9191 38.1244 33.1924 37.9878C33.5318 37.7922 33.901 37.6537 34.2853 37.5779C34.9684 37.373 35.5832 36.8265 36.403 36.6899C36.9495 36.5533 38.1791 37.2364 38.7256 37.4413C39.0671 37.6463 39.4087 37.7829 39.6819 37.9878C40.1282 38.1886 40.5617 38.4167 40.9798 38.6709C41.2172 38.7713 41.4738 38.8179 41.7313 38.8075H42.4144C42.4144 37.5779 42.4144 38.0561 41.1165 37.5096C40.6238 37.2163 40.0958 36.9868 39.5453 36.8265C39.5453 36.8265 39.4087 36.6899 39.3404 36.6899C38.8046 36.4771 38.2572 36.2947 37.7009 36.1434C37.291 35.9385 36.4713 35.8019 36.1297 35.5969C35.7882 35.7335 35.5832 35.8019 35.0368 36.0068C34.4903 36.2117 34.0804 36.4167 33.2607 36.6899C33.124 36.8265 32.9191 36.8265 32.8508 36.8948C32.4034 37.0396 31.9691 37.2225 31.5529 37.4413C31.1348 37.6205 30.7001 37.7578 30.255 37.8512C30.1622 37.9485 30.0923 38.0651 30.05 38.1927C30.3916 38.7392 30.1867 38.6026 30.9381 38.7392Z" fill="#C52031"/>
<path d="M42.3461 48.7126C41.8862 48.5563 41.4683 48.2963 41.1248 47.9528C40.7813 47.6093 40.5214 47.1915 40.3651 46.7316C40.2285 46.5266 40.1601 46.1851 39.9552 45.8435C39.9552 45.7069 39.8186 45.7069 39.8186 45.6386C39.682 45.4337 39.6136 45.0921 39.4087 44.6822C39.2038 44.2724 39.2038 43.7942 39.0671 43.4526C38.9305 43.1111 38.9305 42.7695 38.8622 42.7012C38.826 42.7012 38.7912 42.6868 38.7656 42.6612C38.74 42.6356 38.7256 42.6008 38.7256 42.5646C38.589 42.5646 38.589 42.5646 38.5207 42.428H38.2474C38.1209 42.5826 38.0488 42.7747 38.0425 42.9745V43.6576C38.1582 43.9406 38.2275 44.2405 38.2474 44.5456C38.4247 44.9644 38.5619 45.3989 38.6573 45.8435C38.8622 46.2534 38.8622 46.595 39.0671 46.9365C39.2181 47.2506 39.4013 47.5482 39.6137 47.8246C39.8284 48.0241 40.0126 48.2543 40.1601 48.5077C40.3751 48.7913 40.6279 49.0441 40.9116 49.2591C41.2531 49.464 41.4581 49.669 41.663 49.669C41.7381 49.7362 41.8354 49.7733 41.9362 49.7733C42.037 49.7733 42.1343 49.7362 42.2095 49.669V49.464L42.3461 49.3274H42.4827C42.6876 49.1908 42.4827 48.8492 42.3461 48.7126Z" fill="#C52031"/>
<path d="M31.0748 31.7033C31.0702 31.6247 31.0497 31.5478 31.0145 31.4773C30.9792 31.4069 30.93 31.3443 30.8698 31.2935H30.4532C30.4169 31.2935 30.3822 31.3079 30.3566 31.3335C30.3309 31.3591 30.3165 31.3938 30.3165 31.4301V33.5477C30.4247 33.8561 30.5619 34.1534 30.7264 34.4358C30.8803 34.7269 31.1184 34.965 31.4095 35.1189C31.6446 35.2346 31.8997 35.3042 32.1609 35.3238H32.7074C32.7074 35.6654 32.8441 36.0069 32.8441 36.2802H33.1173C33.2539 36.2802 33.2539 36.1435 33.3222 36.1435C33.3905 36.1435 33.4588 36.0069 33.4588 36.0069V35.5971C33.4588 35.4604 33.4589 35.3921 33.5955 35.3921V35.2555H34.0053C34.241 35.2698 34.4764 35.2227 34.6885 35.1189C34.9091 34.9914 35.1372 34.8774 35.3716 34.7773C35.5702 34.5633 35.7528 34.335 35.9181 34.0942V32.1132C35.9181 31.9083 35.918 31.7716 35.7814 31.7033C35.7814 31.5667 35.6448 31.5667 35.6448 31.4984H35.3033C35.1666 31.4984 35.1666 31.635 35.0983 31.7033V33.2745C35.0001 33.466 34.8858 33.6488 34.7568 33.821C34.0736 34.709 34.2103 33.9576 33.4588 34.0259V32.728C33.4588 32.5231 33.4589 32.1815 33.3222 32.0449V31.635C33.1856 31.635 33.1856 31.4984 33.1173 31.4984H32.5708V33.4111C32.5708 33.5477 32.7074 33.616 32.7074 33.7527C31.956 34.1625 31.6145 34.1625 31.2729 33.2062C31.1944 33.112 31.1358 33.003 31.1006 32.8856C31.0654 32.7682 31.0543 32.6449 31.068 32.5231C31.1408 32.255 31.1432 31.9726 31.0748 31.7033Z" fill="#C52031"/>
</g>
<defs>
<clipPath id="clip0_26_260">
<rect width="72" height="72" fill="white"/>
</clipPath>
</defs>
</svg>
