<svg width="70" height="88" viewBox="0 0 70 88" fill="none" xmlns="http://www.w3.org/2000/svg">
<g clip-path="url(#clip0_26_225)">
<path d="M48.0038 0H21.8984C19.7713 0 18.047 1.73055 18.047 3.86529V64.2191C18.047 66.3539 19.7713 68.0844 21.8984 68.0844H48.0038C50.1309 68.0844 51.8552 66.3539 51.8552 64.2191V3.86529C51.8552 1.73055 50.1309 0 48.0038 0Z" fill="#747474"/>
<path d="M20.0127 76.6632C19.6492 76.2992 19.2285 75.9977 18.7675 75.7706C18.2555 75.5802 17.7122 75.4893 17.1665 75.5028C16.048 75.4892 14.9664 75.9042 14.1423 76.6632C13.7216 77.0433 13.3912 77.5133 13.1757 78.0386C12.9602 78.564 12.865 79.1312 12.8971 79.6983C12.9076 80.8332 13.3536 81.9202 14.1423 82.7334C14.9834 83.4645 16.054 83.8753 17.1665 83.8939C18.2972 83.8834 19.3803 83.4358 20.1906 82.6442C20.5988 82.2481 20.9042 81.7577 21.08 81.2159C21.2621 80.7001 21.3525 80.1562 21.3469 79.6091C21.3354 79.0529 21.2112 78.5048 20.9818 77.9984C20.7524 77.4919 20.4227 77.0376 20.0127 76.6632ZM15.4765 82.2871C15.0222 81.5056 14.8349 80.5966 14.9428 79.6983C14.9347 78.8071 15.1167 77.9244 15.4765 77.1096C15.6602 76.8504 15.8993 76.6358 16.1763 76.4813C16.4533 76.3269 16.7612 76.2365 17.0775 76.2169C17.4121 76.2058 17.7439 76.2823 18.0402 76.4388C18.3365 76.5953 18.5871 76.8265 18.7675 77.1096C19.2217 77.8911 19.4091 78.8001 19.3011 79.6983C19.3011 82.1086 18.5896 83.2691 16.9886 83.2691C16.407 83.1083 15.8925 82.764 15.521 82.2871H15.4765Z" fill="white"/>
<path d="M31.0419 82.8226C30.8824 82.7968 30.7305 82.7358 30.5972 82.6441C30.4193 82.4655 30.3304 82.4655 30.3304 82.3763V77.8236C30.3658 77.4744 30.3186 77.1217 30.1927 76.7942C30.0668 76.4667 29.8657 76.1736 29.6057 75.9388C29.3457 75.704 29.0342 75.534 28.6965 75.4427C28.3588 75.3514 28.0043 75.3414 27.662 75.4134C27.1516 75.4029 26.6456 75.5101 26.183 75.7267C25.7204 75.9434 25.3135 76.2638 24.9936 76.6631V75.949C24.9936 75.7705 24.9936 75.2349 24.5489 75.2349C24.3607 75.2569 24.179 75.3177 24.0153 75.4134C23.6467 75.5647 23.2563 75.6551 22.859 75.6812C22.3253 75.8597 22.1474 75.949 22.1474 76.1275C22.1474 76.3061 22.4142 76.3953 22.5921 76.3953C22.77 76.3953 23.0369 76.3953 23.0369 76.5739C23.2147 76.7524 23.3037 76.7524 23.3037 76.8417V82.1977C23.3037 82.3763 23.1258 82.3763 23.0369 82.4655C22.9479 82.5548 22.77 82.6441 22.5921 82.6441C22.4142 82.6441 22.1474 82.8226 22.1474 82.9119C22.1474 83.0011 22.1474 83.1797 22.5921 83.1797H26.061C26.5057 83.1797 26.5057 83.0011 26.5057 82.9119C26.5057 82.8226 26.3278 82.6441 26.061 82.4655C25.9014 82.4397 25.7496 82.3787 25.6163 82.287C25.3494 82.5548 25.1716 82.4655 25.1716 82.4655V78.627C25.1427 78.0159 25.3319 77.4146 25.7052 76.9309C25.8812 76.7206 26.0983 76.5487 26.343 76.4258C26.5878 76.303 26.8551 76.2319 27.1283 76.2168C28.1067 76.2168 28.5515 76.7524 28.5515 77.9129V82.287C28.5515 82.4655 28.3736 82.4655 28.2846 82.5548C28.1957 82.6441 28.0178 82.7333 27.8399 82.7333C27.662 82.7333 27.3952 82.9119 27.3952 83.0011C27.3952 83.0904 27.3952 83.2689 27.8399 83.2689H31.3088C31.7535 83.2689 31.7535 83.0904 31.7535 83.0011C31.3977 83.0904 31.3977 83.0011 31.0419 82.8226Z" fill="white"/>
<path d="M69.8221 82.3764C69.6604 82.394 69.5065 82.4557 69.3774 82.5549C69.1995 82.7334 69.1105 82.7334 69.1105 82.7334C68.9326 82.7334 68.6658 82.7334 68.6658 82.0193V77.7344C68.6658 76.3062 67.6874 75.592 65.5527 75.592C64.7591 75.5755 63.971 75.7276 63.2401 76.0384C63.0013 76.1333 62.7926 76.2912 62.636 76.4955C62.4794 76.6998 62.3808 76.9429 62.3507 77.1989C62.3507 77.7345 62.6175 77.913 63.0622 77.913C63.3165 77.8788 63.5598 77.7872 63.7738 77.6452C63.7738 77.4667 63.9517 77.3774 63.9517 76.931C63.9517 76.7525 64.1296 76.2169 65.1969 76.2169C66.2643 76.2169 66.6201 76.6632 66.6201 77.3774V78.6271C63.507 79.7876 61.906 80.9481 61.906 82.0193C61.8905 82.2551 61.9308 82.4912 62.0236 82.7084C62.1163 82.9255 62.2589 83.1177 62.4396 83.2691C62.85 83.5752 63.3517 83.7325 63.8628 83.7154C64.9149 83.6625 65.9182 83.2535 66.709 82.5549C66.8352 82.8278 67.017 83.0711 67.2427 83.2691C67.5086 83.5253 67.8538 83.6828 68.2211 83.7154C68.4067 83.7172 68.5905 83.6781 68.7596 83.601C68.9286 83.5239 69.0787 83.4106 69.1995 83.2691C69.4663 83.0012 69.6442 82.8227 69.6442 82.5549C70.1779 82.5549 70 82.3764 69.8221 82.3764ZM66.9759 81.3944C66.9759 81.6622 66.798 81.93 66.4422 82.2871C66.071 82.5384 65.6428 82.6919 65.1969 82.7334C64.9426 82.6992 64.6994 82.6077 64.4854 82.4656C64.3832 82.3426 64.3069 82.2001 64.261 82.0467C64.2152 81.8933 64.2007 81.7321 64.2185 81.573C64.2185 80.6803 65.1969 79.8769 67.0648 79.1627C66.9908 79.9042 66.9611 80.6494 66.9759 81.3944Z" fill="white"/>
<path d="M40.1144 74.6992L39.2249 74.1636H39.047C38.7802 74.3421 38.6023 74.4314 38.5134 74.6099C38.4244 74.7884 38.0686 74.8777 37.9797 75.0563C37.8907 75.2348 37.5349 75.3241 37.2681 75.3241C36.9776 75.4104 36.6799 75.4702 36.3787 75.5026H35.756C34.8695 75.4705 34.0063 75.7914 33.3545 76.3953C33.0641 76.6501 32.8337 76.9664 32.6798 77.3215C32.526 77.6766 32.4527 78.0615 32.4651 78.4484C32.4651 79.0279 32.6523 79.5917 32.9987 80.0552C33.3062 80.3728 33.6329 80.6709 33.9771 80.9479C33.615 81.0271 33.292 81.2313 33.0645 81.5249C32.8369 81.8185 32.7192 82.183 32.7319 82.5547C32.7292 82.8307 32.8139 83.1005 32.9737 83.3251C33.1336 83.5497 33.3603 83.7175 33.6214 83.8045C34.3433 84.1439 35.1381 84.2973 35.9339 84.2508C36.6541 84.2463 37.3717 84.3364 38.0686 84.5186C38.5134 84.6972 38.6023 85.0542 38.6023 85.6791C38.6177 85.9149 38.5774 86.151 38.4847 86.3682C38.3919 86.5853 38.2494 86.7775 38.0686 86.9288C37.4725 87.263 36.7932 87.4179 36.1118 87.3752C35.4593 87.4102 34.8107 87.2552 34.244 86.9288C34.0362 86.8128 33.8617 86.6451 33.7371 86.4419C33.6125 86.2387 33.542 86.0068 33.5324 85.7684C33.5139 85.4604 33.5751 85.1528 33.7103 84.8757L34.155 84.4293H34.244V84.2508C34.244 83.983 33.9771 83.8045 33.5324 83.8045C33.3468 83.8027 33.163 83.8417 32.9939 83.9188C32.8249 83.9959 32.6747 84.1093 32.554 84.2508C32.2647 84.5672 32.1058 84.9819 32.1093 85.4113C32.1327 85.7751 32.2319 86.1298 32.4004 86.4527C32.5689 86.7756 32.8031 87.0595 33.0877 87.2859C33.8917 87.773 34.8171 88.0206 35.756 88.0001C36.8379 88.0741 37.9105 87.7575 38.7802 87.1074C39.1434 86.8411 39.4379 86.4915 39.639 86.0878C39.8402 85.684 39.9422 85.2378 39.9365 84.7864C39.9837 84.3737 39.9175 83.9559 39.745 83.5782C39.5726 83.2006 39.3004 82.8775 38.9581 82.644C38.051 82.0902 36.9919 81.8401 35.9339 81.9299C33.7992 81.9299 33.7992 81.6621 33.7992 81.4835C33.7992 81.305 33.7992 81.2157 34.244 81.0372C34.7583 80.8613 35.3047 80.8003 35.845 80.8586C36.7023 80.8951 37.5473 80.6438 38.2465 80.1445C38.5281 79.9018 38.7536 79.6003 38.9072 79.2611C39.0609 78.9219 39.1389 78.5532 39.136 78.1806C39.1142 77.5212 38.9309 76.8774 38.6023 76.306C38.4244 76.1275 38.4244 76.0382 38.3355 76.0382H38.1576C37.9797 75.8597 37.8907 75.8597 37.8907 75.7704C38.0686 75.7704 38.3355 75.5919 38.4244 75.5919C38.6912 75.5919 38.8691 75.4133 39.136 75.3241C39.4028 75.2348 39.5807 75.1455 39.8475 75.0563H40.1144C40.3812 75.0563 40.3812 74.8777 40.3812 74.7885C40.2923 74.967 40.2923 74.8777 40.1144 74.6992ZM34.5998 80.1445C34.3082 79.6271 34.155 79.0428 34.155 78.4484C34.155 77.854 34.3082 77.2697 34.5998 76.7523C34.6871 76.5721 34.8283 76.4236 35.0037 76.3276C35.179 76.2316 35.3798 76.1928 35.5782 76.2167C35.8002 76.2014 36.0225 76.2424 36.2246 76.336C36.4267 76.4296 36.602 76.5728 36.7344 76.7523C37.0503 77.2595 37.2054 77.8509 37.1792 78.4484C37.1924 79.0445 37.0383 79.6322 36.7344 80.1445C36.6097 80.3321 36.4356 80.4815 36.2316 80.576C36.0275 80.6705 35.8014 80.7065 35.5782 80.6801C35.2033 80.6114 34.8603 80.4236 34.5998 80.1445Z" fill="white"/>
<path d="M50.6099 81.8405L50.521 82.019C50.2743 82.2958 49.973 82.5182 49.6361 82.6718C49.2992 82.8255 48.9342 82.9072 48.5642 82.9117C48.2295 82.9228 47.8978 82.8463 47.6015 82.6898C47.3052 82.5333 47.0545 82.3021 46.8742 82.019C46.3767 81.3173 46.1263 80.4692 46.1626 79.6088C46.1545 78.7175 46.3365 77.8349 46.6963 77.02C46.8906 76.7508 47.1441 76.5301 47.4372 76.3753C47.7304 76.2205 48.0551 76.1356 48.3863 76.1274C48.831 76.1274 48.9199 76.3059 49.0978 76.3059C49.2299 76.4593 49.3217 76.6434 49.3647 76.8415C49.4239 77.0232 49.5464 77.1775 49.7098 77.2759C49.8732 77.3742 50.0665 77.4102 50.2541 77.3771C50.3496 77.3852 50.4457 77.3724 50.5357 77.3393C50.6258 77.3063 50.7075 77.254 50.7753 77.186C50.843 77.118 50.8952 77.0359 50.9281 76.9456C50.961 76.8552 50.9738 76.7588 50.9657 76.6629C50.9657 76.2166 50.6989 75.9488 50.2541 75.681C49.725 75.4409 49.1412 75.3483 48.5642 75.4132C47.4427 75.3826 46.3551 75.8 45.54 76.5737C45.085 76.9544 44.7208 77.4327 44.4745 77.9735C44.2282 78.5142 44.106 79.1036 44.1169 79.6981C44.0864 80.8235 44.5023 81.9152 45.2732 82.7331C45.6573 83.0806 46.1075 83.3467 46.5965 83.5154C47.0856 83.6842 47.6036 83.7521 48.1194 83.7151H48.5642C49.0711 83.7352 49.5708 83.5893 49.988 83.2995C50.4051 83.0096 50.717 82.5916 50.8767 82.1083V82.019L50.6099 81.8405Z" fill="white"/>
<path d="M61.0165 82.8224C60.8517 82.8185 60.6938 82.7551 60.5718 82.6438C60.3939 82.4653 60.305 82.4653 60.305 82.3761V77.8234C60.3282 77.5044 60.2758 77.1844 60.1521 76.8896C60.0284 76.5948 59.837 76.3336 59.5934 76.1273C59.0368 75.6973 58.3337 75.5048 57.6366 75.5917C57.1471 75.5761 56.6605 75.6725 56.2136 75.8736C55.7667 76.0746 55.3713 76.3751 55.0572 76.7522V71.4854C55.0572 71.0391 54.7903 71.0391 54.7903 71.0391C54.5235 71.0391 54.2567 71.2176 53.9009 71.2176C53.8177 71.2066 53.7332 71.2172 53.6553 71.2485C53.5774 71.2798 53.5088 71.3306 53.4562 71.3961L52.0331 71.5747C51.9859 71.5747 51.9406 71.5935 51.9073 71.627C51.8739 71.6604 51.8552 71.7059 51.8552 71.7532V71.9317L52.2999 72.3781H52.4778C52.7446 72.3781 53.1893 72.3781 53.3672 72.6459V82.5546C53.3672 82.7331 53.1893 82.7331 53.1004 82.8224C52.9387 82.84 52.7849 82.9017 52.6557 83.0009C52.4778 83.0009 52.2109 83.1795 52.2109 83.2687C52.2109 83.358 52.2109 83.5365 52.6557 83.5365H56.1245C56.5693 83.5365 56.5693 83.358 56.5693 83.2687C56.5693 83.1795 56.3914 83.0009 56.1245 82.8224C55.9597 82.8185 55.8018 82.7551 55.6798 82.6438C55.1461 82.6438 55.1461 82.4653 55.1461 82.4653V78.6268C55.1173 78.0157 55.3065 77.4144 55.6798 76.9307C55.8558 76.7204 56.0728 76.5484 56.3176 76.4256C56.5624 76.3028 56.8297 76.2316 57.1029 76.2166C58.0813 76.2166 58.5261 76.7522 58.5261 77.9127V82.2868C58.5261 82.4653 58.3482 82.4653 58.2592 82.5546C58.0975 82.5722 57.9437 82.6339 57.8145 82.7331C57.6366 82.7331 57.3698 82.9117 57.3698 83.0009C57.3698 83.0902 57.3698 83.2687 57.8145 83.2687H61.2834C61.7281 83.2687 61.7281 83.0902 61.7281 83.0009C61.6043 83.036 61.4735 83.0379 61.3487 83.0066C61.2238 82.9753 61.1093 82.9118 61.0165 82.8224Z" fill="white"/>
<path d="M11.9631 78.4486C11.3074 78.4596 10.6533 78.5192 10.0063 78.6271H7.96059C7.51586 78.6271 7.42691 78.8057 7.42691 78.8949C7.42691 79.1627 7.87164 79.1627 7.96059 79.3413C8.40532 79.3413 8.40532 79.5198 8.40532 79.5198C8.58545 79.6516 8.72903 79.8273 8.82244 80.0304C8.91584 80.2335 8.95597 80.4572 8.93899 80.6803C8.96921 81.0398 8.92122 81.4017 8.79836 81.7408C8.6755 82.0798 8.4807 82.3881 8.22743 82.6442C7.61239 83.0946 6.84663 83.2868 6.09273 83.1798C5.55933 83.2163 5.02642 83.1018 4.55467 82.8493C4.08292 82.5968 3.69129 82.2164 3.42437 81.7515C2.69555 80.6108 2.35247 79.2648 2.44598 77.913C2.32291 76.4176 2.66472 74.9206 3.42437 73.6282C3.76664 73.1525 4.22371 72.7719 4.75268 72.5221C5.28164 72.2723 5.86517 72.1614 6.44852 72.1999C7.1584 72.1483 7.86312 72.3543 8.43446 72.7802C9.00579 73.2062 9.40578 73.8239 9.56161 74.5208C9.56161 74.6994 9.7395 74.7886 9.7395 74.9672C9.7395 75.1457 9.91739 75.4135 10.0063 75.4135C10.0417 75.4148 10.077 75.4087 10.1099 75.3957C10.1428 75.3826 10.1728 75.363 10.1978 75.3378C10.2228 75.3127 10.2424 75.2827 10.2554 75.2496C10.2684 75.2166 10.2744 75.1812 10.2732 75.1457L10.4511 73.2711V71.8428L9.91739 71.6643V71.8428C9.91739 72.1106 9.7395 72.2891 9.7395 72.3784H9.56161C9.09672 72.1755 8.62171 71.9967 8.13848 71.8428C7.50357 71.6542 6.84372 71.5639 6.18168 71.575C5.34663 71.5228 4.51085 71.6648 3.73946 71.99C2.96807 72.3151 2.2819 72.8147 1.73441 73.4496C1.14173 74.0779 0.685492 74.8228 0.394588 75.6372C0.103684 76.4516 -0.0155417 77.3177 0.0444583 78.1808C0.0156296 78.939 0.142932 79.6949 0.418407 80.4015C0.693882 81.108 1.1116 81.7499 1.64546 82.2871C2.79508 83.3096 4.29058 83.8525 5.82591 83.8047C6.64593 83.7945 7.45816 83.6435 8.22743 83.3583C8.7611 83.0905 9.20583 82.8227 9.82845 82.4656C10.0063 82.2871 10.0953 82.2871 10.3621 82.2871H11.2516V80.6803C11.2516 80.234 11.2516 79.9662 11.4295 79.7876C11.4295 79.6091 11.6073 79.5198 11.6963 79.3413C11.7852 79.1627 11.9631 79.1627 12.23 79.1627C12.3452 79.1545 12.4536 79.1048 12.5352 79.0228C12.6169 78.9408 12.6664 78.832 12.6747 78.7164C12.5413 78.5379 12.3634 78.4486 11.9631 78.4486Z" fill="white"/>
<path d="M40.648 14.0866C40.382 13.7449 40.0072 13.5053 39.5862 13.4078C39.1653 13.3103 38.7237 13.3609 38.3355 13.551C37.245 13.4027 36.1445 13.343 35.0445 13.3725H33.4435C32.7319 13.6403 30.864 13.3724 29.9746 13.6403C29.3843 14.294 28.9687 15.0871 28.7665 15.9457C28.5643 16.8042 28.5821 17.7002 28.8183 18.55C28.2846 20.2461 29.263 23.9953 30.4193 25.3343C30.6862 25.3343 30.953 26.0484 31.8425 26.0484C32.0296 26.1266 32.1845 26.2666 32.2815 26.4451C32.3786 26.6237 32.4119 26.8302 32.3761 27.0304C31.9314 28.2801 31.6646 29.7977 31.3977 30.8689C30.953 31.583 30.6862 32.9221 30.2414 33.2791C30.1396 33.5111 30.1024 33.7664 30.1337 34.0179C30.1651 34.2695 30.2638 34.5077 30.4193 34.7074C30.6862 34.7074 30.8641 34.5289 30.953 34.5289C32.1982 32.4757 32.643 30.244 33.2656 27.9231C33.5324 27.2089 33.2656 26.9411 33.7993 26.4948C33.9635 26.3362 34.1594 26.2143 34.3741 26.1374C34.5888 26.0605 34.8173 26.0301 35.0445 26.0484C35.4402 25.9659 35.8483 25.9628 36.2453 26.0394C36.6422 26.116 37.0201 26.2708 37.3571 26.4948C37.8907 28.3694 38.0686 30.3333 38.9581 32.1186C39.6696 33.0113 39.4917 34.4396 40.8259 34.8859C41.0928 34.7074 40.648 34.6181 40.8259 34.4396C41.2707 33.0113 40.1144 32.0294 39.6696 30.8689C39.2249 29.7084 38.9581 28.2801 38.5134 27.1197C38.3355 26.5841 38.2465 25.8699 38.9581 25.5128C39.4918 25.245 40.3812 25.0665 40.648 24.2631C41.3596 23.549 41.1817 22.1207 41.5375 21.1387C41.902 20.14 42.0535 19.0756 41.9822 18.0144C41.8043 16.6754 42.2491 14.7115 40.648 14.0866ZM31.5311 14.7918C32.6874 14.7918 33.8437 14.524 35.2668 14.6133H35.4447C36.9555 14.7025 38.4702 14.7025 39.9809 14.6133C40.1017 14.7404 40.1928 14.8929 40.2478 15.0596C40.4257 15.5952 40.2478 16.3093 40.4257 16.9342C39.892 17.202 39.1804 16.7557 38.5578 16.7557C37.9352 16.7557 36.5121 16.9342 35.2668 17.0235C34.5679 17.2139 33.8311 17.2139 33.1322 17.0235C32.5985 17.2913 31.9759 16.845 31.4422 17.2913C31.1754 17.0235 30.7306 17.5591 30.4638 17.1128C29.7967 16.229 30.7751 15.4256 31.5311 14.7918ZM39.2694 23.8971C38.3799 23.8971 37.6684 24.6112 36.8679 24.6112C36.3256 24.7999 35.7474 24.861 35.1779 24.7898C34.4663 24.7898 33.5769 24.7898 33.4879 24.6112C32.5985 24.879 31.8869 24.1649 31.3533 23.6293C31.1754 23.0937 30.6417 22.201 30.8196 21.5761C32.0648 21.1298 33.8437 21.3976 35.2668 21.3083C35.5337 21.3083 35.9784 21.1298 36.1563 21.1298C37.0457 21.5761 40.1588 21.1298 40.4257 21.1298C40.1144 22.0314 40.4257 23.906 39.2249 23.906L39.2694 23.8971ZM40.3367 19.9693C38.704 19.938 37.0709 19.9976 35.4447 20.1479H35.2668C34.5553 19.9693 31.4422 20.1479 30.8196 20.5942C30.3748 20.3264 30.5527 19.6123 30.3748 18.9874C30.197 18.3625 31.0864 18.541 31.5311 18.2732C31.9759 18.541 33.6658 18.541 35.2668 18.4518C36.8679 18.3625 38.8247 18.0054 39.0915 18.0054C39.1832 17.9413 39.2874 17.8972 39.3971 17.876C39.5069 17.8547 39.6199 17.8568 39.7288 17.882C39.8377 17.9072 39.9402 17.9551 40.0296 18.0225C40.119 18.0899 40.1933 18.1753 40.2478 18.2732C40.2923 18.8178 40.648 19.5319 40.2923 19.9783L40.3367 19.9693Z" fill="white"/>
<path d="M45.3621 11.2208C45.1843 10.6852 38.2465 10.5067 36.6455 10.7745C35.9339 10.2389 36.8234 9.16769 36.6455 8.45355C36.9123 7.29307 40.2033 7.56087 41.1817 7.56087C42.0712 7.82867 42.8717 7.56087 43.7611 7.82867C44.028 7.65014 44.9174 7.82867 44.9174 7.38233C44.7395 6.66819 44.028 6.66819 43.4943 6.48966C41.1817 6.66819 38.7802 6.48966 36.3787 6.6682H35.1334C32.5512 6.80516 29.9619 6.71554 27.3952 6.40039C26.9505 6.66819 25.972 6.66819 26.1499 7.38233C26.3278 7.38233 26.3278 7.56087 26.4168 7.56087C26.7215 7.70594 27.0591 7.76753 27.3952 7.7394C29.263 8.18574 32.8208 7.56087 34.8666 7.91794C35.0173 8.2878 35.1074 8.67968 35.1334 9.07842C35.1334 9.52476 35.1334 10.5067 34.8666 10.7745C33.6214 10.5067 29.263 10.3282 27.8399 10.953C26.7404 10.7183 25.5964 10.8114 24.5489 11.2208C24.4998 11.3128 24.4724 11.4149 24.469 11.5192C24.4656 11.6235 24.4862 11.7272 24.5293 11.8222C24.5723 11.9172 24.6366 12.001 24.7171 12.067C24.7977 12.133 24.8923 12.1795 24.9936 12.2028C26.1499 12.3813 28.9962 11.7565 30.4193 11.935C31.5756 11.6672 33.7103 11.935 35.1334 11.935C35.6149 11.9697 36.0984 11.909 36.5565 11.7564C37.8018 11.5779 44.1169 12.0242 45.1843 11.7564C45.3621 11.6761 45.54 11.4976 45.3621 11.2208Z" fill="white"/>
<path d="M40.2923 40.7773V37.4744C40.2923 37.4744 40.1144 37.2959 40.0254 37.2959H39.3138C39.3254 37.4908 39.2617 37.6826 39.136 37.8315V38.7242C39.136 38.992 38.9581 39.4383 38.9581 39.7061C38.985 40.1014 38.9243 40.4977 38.7802 40.8666C38.2465 41.1344 37.3571 41.3129 37.0902 39.8847V37.9208L36.6455 37.4744H35.756V39.7865C35.7391 40.0374 35.8013 40.2872 35.9339 40.5006C36.0613 40.7223 36.1515 40.9636 36.2008 41.2147C36.2008 41.4825 36.3786 41.6611 36.3786 41.7503C36.4387 41.8357 36.5189 41.9048 36.612 41.9515C36.7051 41.9982 36.8083 42.0211 36.9123 42.0181C37.0902 42.1967 37.3571 42.1967 37.6239 42.286C37.8753 42.2487 38.1311 42.3129 38.3354 42.4645C38.6023 42.4645 38.7802 42.4645 38.8691 42.643V43.2679C38.8691 43.3572 38.8691 43.4464 39.047 43.4464L39.3138 43.7142H39.5807L40.0254 43.5357C40.0254 43.2679 40.2033 42.8216 40.2033 42.5538C40.3812 42.5538 40.3812 42.7323 40.4701 42.7323H41.6264C41.8933 42.7323 42.0711 42.5538 42.338 42.286C42.6323 41.9049 42.8718 41.4842 43.0496 41.0362C43.2674 40.499 43.3587 39.9186 43.3164 39.3401C43.3572 38.9153 43.2962 38.4868 43.1385 38.0904C42.9606 37.9118 42.9606 37.9118 42.9606 37.8226L42.7827 37.644H42.249C42.249 37.8226 42.0712 37.9118 42.0712 38.0904C42.0712 38.2689 41.8933 38.3582 41.8933 38.5367C41.8933 38.7153 42.0712 38.983 42.0712 39.2508C42.0112 39.5564 41.9218 39.8553 41.8043 40.1435C41.5375 41.4915 41.0038 40.9559 40.2923 40.7773Z" fill="white"/>
<path d="M32.8208 52.2842H32.1982C32.151 52.2842 32.1058 52.303 32.0724 52.3365C32.0391 52.37 32.0203 52.4154 32.0203 52.4627C32.0203 52.6412 31.8424 52.6413 31.8424 52.7305C31.854 52.9254 31.7903 53.1172 31.6645 53.2661C31.529 54.049 31.3509 54.8238 31.1309 55.5871C31.0074 56.025 30.828 56.4451 30.5972 56.8368C30.2934 57.4271 29.9037 57.9687 29.4409 58.4436C28.9962 58.89 28.2846 59.3363 28.0178 59.6041C27.7528 59.8092 27.4508 59.9608 27.1283 60.0505C27.1283 60.229 26.9504 60.229 26.9504 60.3183V61.2109C27.0771 61.3321 27.229 61.4236 27.3952 61.4787C27.4783 61.4897 27.5629 61.4791 27.6408 61.4478C27.7187 61.4166 27.7872 61.3657 27.8399 61.3002C28.0178 61.3002 28.1067 61.1217 28.3736 61.0324C28.6404 60.9431 28.8183 60.7646 29.0851 60.5861C29.352 60.4075 29.352 60.3183 29.5298 60.3183C29.8892 59.8781 30.2753 59.4607 30.6861 59.0685C30.9004 58.8085 31.1386 58.5694 31.3977 58.3544C31.6265 58.0906 31.8072 57.7885 31.9314 57.4617C32.3139 56.7241 32.6123 55.9455 32.8208 55.1407C32.9756 54.6183 33.0652 54.0785 33.0877 53.5339V52.3735C32.9098 52.4627 32.9098 52.4627 32.8208 52.2842Z" fill="white"/>
<path d="M39.8475 51.3109H41.0038C41.5375 51.3109 41.9822 51.1323 42.2491 51.1323C44.8285 50.2397 42.249 49.8826 41.0038 50.4182H36.1118V49.9719C36.1118 49.7041 35.9339 48.8114 35.9339 48.5436C35.9339 48.2758 36.1118 48.0972 36.1118 47.8294V47.3831C36.1118 46.8475 36.2897 46.4904 36.1118 46.2226C35.8832 45.9494 35.5701 45.7609 35.2224 45.687C35.0445 45.687 34.7776 46.1334 34.6887 46.4012C34.6436 46.7867 34.6436 47.1761 34.6887 47.5616L34.8666 50.3289C33.8882 50.3289 32.4651 50.5967 31.1309 50.5075H30.6417C29.8873 50.3118 29.1044 50.2513 28.3291 50.3289C27.6175 50.5075 27.0839 50.8645 28.3291 51.3109C28.5959 51.3109 28.7738 51.4894 29.2186 51.4894H34.7332V61.1303C34.7332 61.3088 34.7332 61.3088 34.9111 61.3981L35.089 61.5766C35.1361 61.5766 35.1814 61.5955 35.2147 61.6289C35.2481 61.6624 35.2668 61.7078 35.2668 61.7552H35.7116C35.8895 61.7552 35.9784 61.5766 36.1563 61.4874V51.5787H39.1804C39.267 51.4899 39.371 51.4203 39.4858 51.3742C39.6007 51.328 39.7239 51.3065 39.8475 51.3109Z" fill="white"/>
<path d="M28.3736 47.2938C28.7097 47.2464 29.0385 47.1565 29.352 47.026C29.5729 46.8981 29.8133 46.8076 30.0635 46.7582C30.5083 46.5797 30.953 46.4904 31.3088 46.3119C31.7507 46.0562 32.2315 45.8753 32.7319 45.7763C33.6214 45.5085 34.4219 44.7943 35.4892 44.6158C36.2008 44.4373 37.8018 45.3299 38.5134 45.5977C38.9581 45.8655 39.4028 46.0441 39.7586 46.3119C40.3397 46.5742 40.9041 46.8723 41.4485 47.2045C41.7576 47.3357 42.0917 47.3966 42.4269 47.3831H43.3164C43.3164 45.7763 43.3164 46.4011 41.6264 45.687C40.985 45.3037 40.2975 45.0037 39.5807 44.7943C39.5807 44.7943 39.4028 44.6158 39.3139 44.6158C38.6162 44.3377 37.9035 44.0993 37.1792 43.9016C36.6455 43.6338 35.5782 43.4553 35.1334 43.1875C34.6887 43.366 34.4219 43.4553 33.7103 43.7231C32.9987 43.9909 32.4651 44.2587 31.3977 44.6158C31.2198 44.7943 30.953 44.7943 30.8641 44.8836C30.2815 45.0728 29.7161 45.3117 29.1741 45.5977C28.6298 45.8318 28.0637 46.0113 27.4841 46.1333C27.3634 46.2605 27.2722 46.4129 27.2173 46.5797C27.662 47.2938 27.3952 47.1153 28.3736 47.2938Z" fill="white"/>
<path d="M43.2274 60.3181C42.6286 60.1138 42.0845 59.7741 41.6373 59.3253C41.19 58.8764 40.8516 58.3304 40.648 57.7293C40.4701 57.4615 40.3812 57.0152 40.1144 56.5688C40.1144 56.3903 39.9365 56.3903 39.9365 56.301C39.7586 56.0332 39.6696 55.5869 39.4028 55.0513C39.136 54.5157 39.136 53.8908 38.9581 53.4445C38.7802 52.9981 38.7802 52.5518 38.6912 52.4625C38.6441 52.4625 38.5988 52.4437 38.5655 52.4102C38.5321 52.3768 38.5134 52.3314 38.5134 52.284C38.3355 52.284 38.3355 52.284 38.2465 52.1055H37.8907C37.7259 52.3076 37.6322 52.5586 37.6239 52.8196V53.7123C37.7746 54.0821 37.8647 54.474 37.8907 54.8728C38.1215 55.42 38.3002 55.9879 38.4244 56.5688C38.6912 57.1045 38.6912 57.5508 38.9581 57.9971C39.1547 58.4076 39.3931 58.7965 39.6696 59.1576C39.9493 59.4184 40.1891 59.7192 40.3812 60.0503C40.6611 60.4209 40.9903 60.7513 41.3596 61.0322C41.8043 61.3 42.0712 61.5678 42.338 61.5678C42.4358 61.6557 42.5625 61.7042 42.6938 61.7042C42.8251 61.7042 42.9517 61.6557 43.0496 61.5678V61.3L43.2274 61.1215H43.4054C43.6722 60.9519 43.4053 60.5055 43.2274 60.3181Z" fill="white"/>
<path d="M28.5515 38.0996C28.5455 37.9968 28.5188 37.8963 28.4729 37.8042C28.427 37.7122 28.363 37.6304 28.2846 37.564H27.7509C27.7038 37.564 27.6585 37.5828 27.6252 37.6163C27.5918 37.6497 27.5731 37.6952 27.5731 37.7425V40.5098C27.7139 40.9127 27.8926 41.3013 28.1067 41.6703C28.3071 42.0507 28.6171 42.3618 28.9962 42.563C29.3023 42.7142 29.6344 42.8051 29.9746 42.8308H30.6861C30.6861 43.2771 30.864 43.7234 30.864 44.0805H31.2198C31.3977 44.0805 31.3977 43.902 31.4866 43.902C31.5756 43.902 31.6645 43.7234 31.6645 43.7234V43.1878C31.6645 43.0093 31.6645 42.92 31.8424 42.92V42.7415H32.3761C32.683 42.7601 32.9894 42.6986 33.2656 42.563C33.5528 42.3964 33.8499 42.2473 34.155 42.1166C34.4136 41.8369 34.6515 41.5386 34.8666 41.2239V38.6352C34.8666 38.3674 34.8666 38.1888 34.6887 38.0996C34.6887 37.921 34.5108 37.921 34.5108 37.8318H34.0661C33.8882 37.8318 33.8882 38.0103 33.7992 38.0996V40.1527C33.6713 40.403 33.5226 40.6419 33.3545 40.8669C32.4651 42.0274 32.6429 41.0454 31.6645 41.1347V39.4386C31.6645 39.1708 31.6645 38.7244 31.4866 38.5459V38.0014C31.3088 38.0014 31.3088 37.8228 31.2198 37.8228H30.5083V40.3223C30.5083 40.5009 30.6861 40.5901 30.6861 40.7687C29.7077 41.3043 29.263 41.3043 28.8183 40.0545C28.7161 39.9315 28.6398 39.789 28.5939 39.6356C28.5481 39.4822 28.5336 39.321 28.5515 39.1619C28.6419 38.8136 28.6419 38.4479 28.5515 38.0996Z" fill="white"/>
</g>
<defs>
<clipPath id="clip0_26_225">
<rect width="70" height="88" fill="white"/>
</clipPath>
</defs>
</svg>
