<svg width="59" height="74" viewBox="0 0 59 74" fill="none" xmlns="http://www.w3.org/2000/svg">
<g clip-path="url(#clip0_25_21)">
<path d="M40.4604 0H18.4572C16.6644 0 15.2111 1.45523 15.2111 3.25036V54.0024C15.2111 55.7976 16.6644 57.2528 18.4572 57.2528H40.4604C42.2531 57.2528 43.7065 55.7976 43.7065 54.0024V3.25036C43.7065 1.45523 42.2531 0 40.4604 0Z" fill="#C52031"/>
<path d="M16.8679 64.4666C16.5614 64.1605 16.2069 63.9069 15.8183 63.716C15.3868 63.5559 14.9289 63.4795 14.4689 63.4908C13.5262 63.4793 12.6146 63.8283 11.92 64.4666C11.5653 64.7862 11.2869 65.1815 11.1053 65.6232C10.9236 66.065 10.8433 66.5419 10.8704 67.0189C10.8792 67.9732 11.2552 68.8873 11.92 69.5711C12.6289 70.1858 13.5312 70.5313 14.4689 70.547C15.4219 70.5381 16.3349 70.1617 17.0178 69.496C17.3619 69.163 17.6192 68.7506 17.7675 68.295C17.9209 67.8613 17.9971 67.4039 17.9924 66.9438C17.9827 66.4761 17.878 66.0152 17.6847 65.5894C17.4914 65.1635 17.2134 64.7815 16.8679 64.4666ZM13.0445 69.1958C12.6616 68.5386 12.5037 67.7742 12.5947 67.0189C12.5878 66.2694 12.7412 65.5272 13.0445 64.842C13.1993 64.624 13.4008 64.4435 13.6343 64.3137C13.8678 64.1838 14.1273 64.1078 14.3939 64.0913C14.676 64.082 14.9556 64.1463 15.2053 64.2779C15.4551 64.4095 15.6663 64.6039 15.8183 64.842C16.2012 65.4991 16.3591 66.2635 16.2681 67.0189C16.2681 69.0457 15.6684 70.0215 14.3189 70.0215C13.8288 69.8863 13.3951 69.5968 13.082 69.1958H13.0445Z" fill="black"/>
<path d="M26.1639 69.6462C26.0294 69.6245 25.9014 69.5732 25.7891 69.496C25.6391 69.3459 25.5642 69.3459 25.5642 69.2709V65.4425C25.594 65.1488 25.5543 64.8522 25.4481 64.5769C25.342 64.3015 25.1725 64.055 24.9534 63.8575C24.7343 63.6601 24.4717 63.5171 24.187 63.4404C23.9024 63.3636 23.6037 63.3552 23.3151 63.4157C22.8849 63.4069 22.4584 63.497 22.0685 63.6792C21.6786 63.8614 21.3356 64.1308 21.0661 64.4666V63.8661C21.0661 63.716 21.0661 63.2656 20.6912 63.2656C20.5326 63.2841 20.3795 63.3352 20.2414 63.4157C19.9308 63.5429 19.6017 63.619 19.2668 63.6409C18.817 63.791 18.6671 63.8661 18.6671 64.0162C18.6671 64.1664 18.892 64.2414 19.0419 64.2414C19.1919 64.2414 19.4168 64.2414 19.4168 64.3916C19.5667 64.5417 19.6417 64.5417 19.6417 64.6168V69.1207C19.6417 69.2708 19.4917 69.2708 19.4168 69.3459C19.3418 69.421 19.1919 69.496 19.0419 69.496C18.892 69.496 18.6671 69.6462 18.6671 69.7212C18.6671 69.7963 18.6671 69.9464 19.0419 69.9464H21.9657C22.3405 69.9464 22.3405 69.7963 22.3405 69.7212C22.3405 69.6462 22.1906 69.496 21.9657 69.3459C21.8312 69.3242 21.7032 69.2729 21.5909 69.1958C21.366 69.421 21.216 69.3459 21.216 69.3459V66.1181C21.1917 65.6042 21.3512 65.0985 21.6658 64.6918C21.8141 64.5149 21.9971 64.3704 22.2034 64.2671C22.4097 64.1638 22.635 64.104 22.8653 64.0913C23.69 64.0913 24.0648 64.5417 24.0648 65.5176V69.1958C24.0648 69.3459 23.9149 69.3459 23.8399 69.421C23.7649 69.496 23.615 69.5711 23.4651 69.5711C23.3151 69.5711 23.0902 69.7212 23.0902 69.7963C23.0902 69.8714 23.0902 70.0215 23.4651 70.0215H26.3888C26.7637 70.0215 26.7637 69.8714 26.7637 69.7963C26.4638 69.8714 26.4638 69.7963 26.1639 69.6462Z" fill="black"/>
<path d="M58.85 69.2708C58.7137 69.2856 58.5841 69.3376 58.4752 69.421C58.3253 69.5711 58.2503 69.5711 58.2503 69.5711C58.1004 69.5711 57.8755 69.5711 57.8755 68.9706V65.3674C57.8755 64.1664 57.0508 63.5658 55.2516 63.5658C54.5827 63.552 53.9184 63.6799 53.3024 63.9412C53.1011 64.0209 52.9252 64.1538 52.7932 64.3256C52.6612 64.4974 52.5781 64.7018 52.5527 64.917C52.5527 65.3674 52.7776 65.5175 53.1525 65.5175C53.3668 65.4888 53.5718 65.4118 53.7522 65.2923C53.7522 65.1422 53.9022 65.0671 53.9022 64.6918C53.9022 64.5417 54.0521 64.0913 54.9517 64.0913C55.8513 64.0913 56.1512 64.4666 56.1512 65.0671V66.1181C53.5273 67.0939 52.1779 68.0698 52.1779 68.9706C52.1649 69.1688 52.1988 69.3674 52.277 69.55C52.3552 69.7326 52.4753 69.8942 52.6277 70.0215C52.9736 70.2789 53.3965 70.4112 53.8272 70.3968C54.714 70.3524 55.5596 70.0084 56.2262 69.421C56.3325 69.6504 56.4858 69.855 56.676 70.0215C56.9001 70.237 57.1911 70.3694 57.5006 70.3968C57.6571 70.3983 57.812 70.3655 57.9545 70.3007C58.097 70.2358 58.2235 70.1405 58.3253 70.0215C58.5502 69.7963 58.7001 69.6462 58.7001 69.421C59.1499 69.421 59 69.2708 58.85 69.2708ZM56.4511 68.4451C56.4511 68.6703 56.3011 68.8955 56.0013 69.1958C55.6884 69.4071 55.3275 69.5361 54.9517 69.5711C54.7374 69.5423 54.5323 69.4654 54.352 69.3459C54.2658 69.2424 54.2015 69.1226 54.1629 68.9936C54.1242 68.8646 54.112 68.7291 54.1271 68.5952C54.1271 67.8446 54.9517 67.169 56.526 66.5685C56.4636 67.192 56.4386 67.8186 56.4511 68.4451Z" fill="black"/>
<path d="M33.8107 62.8152L33.061 62.3648H32.9111C32.6862 62.5149 32.5362 62.59 32.4613 62.7401C32.3863 62.8902 32.0864 62.9653 32.0114 63.1154C31.9365 63.2656 31.6366 63.3406 31.4117 63.3406C31.1668 63.4133 30.9159 63.4635 30.662 63.4908H30.1372C29.39 63.4638 28.6625 63.7336 28.1131 64.2414C27.8683 64.4557 27.6741 64.7217 27.5444 65.0203C27.4148 65.3189 27.353 65.6425 27.3634 65.9679C27.3634 66.4552 27.5212 66.9293 27.8132 67.3191C28.0723 67.5862 28.3478 67.8369 28.6379 68.0698C28.3326 68.1364 28.0604 68.3081 27.8686 68.555C27.6768 68.8019 27.5776 69.1084 27.5883 69.421C27.586 69.6531 27.6574 69.8799 27.7921 70.0688C27.9269 70.2576 28.118 70.3988 28.338 70.4719C28.9465 70.7573 29.6164 70.8863 30.2872 70.8472C30.8942 70.8435 31.499 70.9192 32.0864 71.0724C32.4613 71.2226 32.5362 71.5228 32.5362 72.0483C32.5492 72.2466 32.5153 72.4451 32.4371 72.6277C32.3589 72.8103 32.2388 72.9719 32.0864 73.0992C31.584 73.3802 31.0114 73.5105 30.4371 73.4745C29.8872 73.504 29.3404 73.3737 28.8628 73.0992C28.6877 73.0016 28.5406 72.8606 28.4356 72.6897C28.3305 72.5189 28.2711 72.3238 28.263 72.1233C28.2474 71.8644 28.299 71.6057 28.413 71.3727L28.7878 70.9974H28.8628V70.8472C28.8628 70.622 28.6379 70.4719 28.263 70.4719C28.1065 70.4704 27.9516 70.5032 27.8092 70.5681C27.6667 70.6329 27.5401 70.7282 27.4384 70.8472C27.1946 71.1133 27.0606 71.462 27.0635 71.8231C27.0833 72.129 27.1669 72.4273 27.3089 72.6989C27.4509 72.9704 27.6483 73.2091 27.8882 73.3995C28.5659 73.8091 29.3459 74.0173 30.1372 74C31.0491 74.0622 31.9531 73.796 32.6861 73.2493C32.9923 73.0254 33.2405 72.7315 33.41 72.3919C33.5796 72.0524 33.6655 71.6772 33.6607 71.2976C33.7005 70.9506 33.6448 70.5992 33.4994 70.2817C33.354 69.9641 33.1246 69.6924 32.8361 69.496C32.0715 69.0304 31.1789 68.8201 30.2872 68.8955C28.4879 68.8955 28.4879 68.6703 28.4879 68.5202C28.4879 68.3701 28.4879 68.295 28.8628 68.1449C29.2963 67.9969 29.7568 67.9457 30.2122 67.9947C30.9348 68.0254 31.647 67.8141 32.2363 67.3942C32.4737 67.1901 32.6638 66.9366 32.7932 66.6513C32.9227 66.3661 32.9885 66.056 32.986 65.7427C32.9676 65.1883 32.8132 64.6469 32.5362 64.1664C32.3863 64.0162 32.3863 63.9412 32.3113 63.9412H32.1614C32.0114 63.791 31.9365 63.791 31.9365 63.716C32.0864 63.716 32.3113 63.5658 32.3863 63.5658C32.6112 63.5658 32.7611 63.4157 32.986 63.3406C33.2109 63.2656 33.3609 63.1905 33.5858 63.1154H33.8107C34.0356 63.1154 34.0356 62.9653 34.0356 62.8902C33.9606 63.0404 33.9606 62.9653 33.8107 62.8152ZM29.1626 67.3942C28.9169 66.9591 28.7878 66.4678 28.7878 65.9679C28.7878 65.4681 28.9169 64.9768 29.1626 64.5417C29.2363 64.3901 29.3553 64.2652 29.5031 64.1845C29.6509 64.1038 29.8201 64.0712 29.9873 64.0913C30.1745 64.0784 30.3618 64.1129 30.5322 64.1916C30.7025 64.2703 30.8503 64.3907 30.9619 64.5417C31.2281 64.9682 31.3588 65.4655 31.3367 65.9679C31.3479 66.4692 31.218 66.9634 30.9619 67.3942C30.8567 67.552 30.71 67.6775 30.538 67.757C30.366 67.8365 30.1754 67.8668 29.9873 67.8446C29.6713 67.7868 29.3823 67.6289 29.1626 67.3942Z" fill="black"/>
<path d="M42.6569 68.8204L42.582 68.9706C42.3741 69.2034 42.1201 69.3903 41.8361 69.5195C41.5522 69.6488 41.2445 69.7175 40.9327 69.7212C40.6506 69.7306 40.371 69.6663 40.1212 69.5347C39.8715 69.4031 39.6603 69.2087 39.5083 68.9706C39.0889 68.3805 38.8779 67.6674 38.9085 66.9438C38.9017 66.1943 39.0551 65.4521 39.3583 64.7669C39.5221 64.5405 39.7358 64.3549 39.9828 64.2247C40.2299 64.0945 40.5036 64.0232 40.7827 64.0162C41.1576 64.0162 41.2325 64.1664 41.3825 64.1664C41.4938 64.2953 41.5711 64.4502 41.6074 64.6167C41.6573 64.7696 41.7606 64.8993 41.8983 64.982C42.036 65.0648 42.1989 65.095 42.3571 65.0671C42.4375 65.074 42.5185 65.0632 42.5944 65.0354C42.6703 65.0076 42.7392 64.9636 42.7963 64.9064C42.8534 64.8492 42.8974 64.7803 42.9251 64.7043C42.9528 64.6283 42.9636 64.5472 42.9568 64.4666C42.9568 64.0913 42.7319 63.8661 42.3571 63.6409C41.9111 63.4389 41.419 63.3611 40.9327 63.4157C39.9874 63.39 39.0707 63.741 38.3837 64.3916C38.0002 64.7117 37.6933 65.1139 37.4857 65.5687C37.2781 66.0234 37.1751 66.519 37.1842 67.0189C37.1586 67.9653 37.5091 68.8832 38.1588 69.5711C38.4826 69.8633 38.862 70.087 39.2742 70.2289C39.6864 70.3708 40.123 70.4279 40.5578 70.3968H40.9327C41.3599 70.4137 41.7811 70.291 42.1327 70.0473C42.4843 69.8036 42.7472 69.452 42.8818 69.0456V68.9706L42.6569 68.8204Z" fill="black"/>
<path d="M51.4282 69.6462C51.2893 69.6429 51.1562 69.5896 51.0534 69.496C50.9034 69.3459 50.8285 69.3459 50.8285 69.2709V65.4425C50.848 65.1742 50.8039 64.9052 50.6996 64.6573C50.5954 64.4094 50.434 64.1897 50.2287 64.0162C49.7596 63.6546 49.167 63.4927 48.5794 63.5658C48.1669 63.5528 47.7567 63.6338 47.38 63.8029C47.0034 63.9719 46.6701 64.2246 46.4053 64.5417V60.1128C46.4053 59.7375 46.1804 59.7375 46.1804 59.7375C45.9555 59.7375 45.7306 59.8876 45.4307 59.8876C45.3606 59.8784 45.2894 59.8873 45.2237 59.9136C45.1581 59.9399 45.1003 59.9826 45.0559 60.0377L43.8564 60.1879C43.8167 60.1879 43.7785 60.2037 43.7504 60.2318C43.7223 60.26 43.7065 60.2982 43.7065 60.338V60.4881L44.0813 60.8635H44.2313C44.4562 60.8635 44.831 60.8635 44.9809 61.0887V69.421C44.9809 69.5711 44.831 69.5711 44.756 69.6462C44.6197 69.661 44.4901 69.7129 44.3812 69.7963C44.2313 69.7963 44.0064 69.9464 44.0064 70.0215C44.0064 70.0966 44.0064 70.2467 44.3812 70.2467H47.3049C47.6798 70.2467 47.6798 70.0966 47.6798 70.0215C47.6798 69.9464 47.5299 69.7963 47.3049 69.6462C47.166 69.6429 47.0329 69.5896 46.9301 69.496C46.4803 69.496 46.4803 69.3459 46.4803 69.3459V66.1181C46.456 65.6042 46.6155 65.0985 46.9301 64.6918C47.0784 64.5149 47.2614 64.3704 47.4677 64.2671C47.674 64.1638 47.8993 64.104 48.1296 64.0913C48.9543 64.0913 49.3291 64.5417 49.3291 65.5176V69.1958C49.3291 69.3459 49.1792 69.3459 49.1042 69.421C48.9679 69.4358 48.8382 69.4877 48.7294 69.5711C48.5794 69.5711 48.3545 69.7212 48.3545 69.7963C48.3545 69.8714 48.3545 70.0215 48.7294 70.0215H51.6531C52.0279 70.0215 52.0279 69.8714 52.0279 69.7963C51.9236 69.8258 51.8133 69.8274 51.7081 69.8011C51.6029 69.7748 51.5064 69.7214 51.4282 69.6462Z" fill="black"/>
<path d="M10.0832 65.9679C9.53051 65.9772 8.97924 66.0273 8.43393 66.1181H6.70965C6.33481 66.1181 6.25984 66.2682 6.25984 66.3433C6.25984 66.5685 6.63469 66.5685 6.70965 66.7186C7.08449 66.7186 7.08449 66.8687 7.08449 66.8687C7.23632 66.9795 7.35734 67.1273 7.43607 67.2981C7.51479 67.4689 7.54862 67.657 7.53431 67.8446C7.55978 68.1469 7.51933 68.4512 7.41578 68.7363C7.31222 69.0215 7.14803 69.2807 6.93456 69.496C6.41617 69.8748 5.77074 70.0364 5.13532 69.9464C4.68573 69.9772 4.23657 69.8809 3.83895 69.6686C3.44134 69.4562 3.11124 69.1363 2.88627 68.7454C2.27198 67.7862 1.98281 66.6543 2.06163 65.5176C1.95789 64.26 2.24599 63.0012 2.88627 61.9144C3.17476 61.5144 3.56 61.1944 4.00584 60.9843C4.45168 60.7742 4.94352 60.681 5.4352 60.7133C6.03352 60.67 6.6275 60.8432 7.10905 61.2014C7.59061 61.5595 7.92774 62.079 8.05908 62.665C8.05908 62.8152 8.20902 62.8902 8.20902 63.0404C8.20902 63.1905 8.35896 63.4157 8.43393 63.4157C8.46374 63.4168 8.49346 63.4116 8.52122 63.4007C8.54898 63.3898 8.57419 63.3732 8.59529 63.3521C8.61638 63.331 8.63291 63.3057 8.64385 63.2779C8.65478 63.2501 8.65988 63.2204 8.65883 63.1905L8.80877 61.6141V60.4131L8.35895 60.2629V60.4131C8.35895 60.6383 8.20902 60.7884 8.20902 60.8635H8.05908C7.66725 60.6928 7.26688 60.5425 6.85959 60.4131C6.32446 60.2545 5.76829 60.1785 5.21029 60.1879C4.50646 60.144 3.80201 60.2634 3.15184 60.5368C2.50167 60.8103 1.92333 61.2303 1.46188 61.7643C0.962328 62.2925 0.577785 62.9189 0.332594 63.6038C0.0874039 64.2886 -0.0130866 65.017 0.0374848 65.7427C0.0131864 66.3803 0.120484 67.016 0.35267 67.6101C0.584856 68.2043 0.93693 68.7441 1.3869 69.1958C2.35586 70.0556 3.61636 70.5121 4.91042 70.4719C5.60158 70.4633 6.28617 70.3364 6.93456 70.0966C7.38437 69.8714 7.75921 69.6462 8.28399 69.3459C8.43393 69.1958 8.50889 69.1958 8.73379 69.1958H9.48348V67.8446C9.48348 67.4693 9.48347 67.2441 9.63341 67.0939C9.63341 66.9438 9.78335 66.8687 9.85832 66.7186C9.93329 66.5685 10.0832 66.5685 10.3081 66.5685C10.4052 66.5615 10.4966 66.5197 10.5654 66.4508C10.6343 66.3818 10.676 66.2904 10.683 66.1931C10.5705 66.043 10.4206 65.9679 10.0832 65.9679Z" fill="black"/>
<path d="M34.2605 11.8454C34.0363 11.5581 33.7203 11.3566 33.3655 11.2746C33.0107 11.1927 32.6386 11.2351 32.3113 11.395C31.3922 11.2704 30.4646 11.2201 29.5375 11.2449H28.1881C27.5883 11.4701 26.014 11.2449 25.2643 11.4701C24.7668 12.0198 24.4165 12.6868 24.2461 13.4087C24.0756 14.1307 24.0906 14.8841 24.2897 15.5987C23.8399 17.025 24.6645 20.1777 25.6391 21.3037C25.864 21.3037 26.0889 21.9042 26.8386 21.9042C26.9963 21.97 27.1269 22.0877 27.2087 22.2378C27.2905 22.388 27.3186 22.5616 27.2884 22.73C26.9136 23.7809 26.6887 25.057 26.4638 25.9578C26.0889 26.5583 25.864 27.6843 25.4892 27.9846C25.4034 28.1796 25.372 28.3944 25.3984 28.6059C25.4248 28.8174 25.508 29.0177 25.6391 29.1856C25.864 29.1856 26.014 29.0355 26.0889 29.0355C27.1385 27.309 27.5133 25.4323 28.0381 23.4806C28.263 22.8801 28.0381 22.6549 28.4879 22.2796C28.6264 22.1462 28.7915 22.0437 28.9725 21.979C29.1534 21.9143 29.346 21.8888 29.5375 21.9042C29.871 21.8348 30.215 21.8322 30.5496 21.8966C30.8841 21.961 31.2026 22.0912 31.4867 22.2796C31.9365 23.856 32.0864 25.5074 32.8361 27.0087C33.4358 27.7594 33.2859 28.9604 34.4104 29.3358C34.6353 29.1856 34.2605 29.1106 34.4104 28.9604C34.7853 27.7594 33.8107 26.9337 33.4358 25.9578C33.061 24.9819 32.8361 23.7809 32.4612 22.805C32.3113 22.3546 32.2363 21.7541 32.8361 21.4538C33.2859 21.2286 34.0356 21.0785 34.2605 20.4029C34.8602 19.8024 34.7103 18.6013 35.0102 17.7756C35.3174 16.9358 35.4451 16.0407 35.385 15.1483C35.2351 14.0223 35.6099 12.3709 34.2605 11.8454ZM26.5762 12.4384C27.5508 12.4384 28.5254 12.2132 29.7249 12.2883H29.8748C31.1482 12.3634 32.4249 12.3634 33.6982 12.2883C33.8 12.3952 33.8768 12.5234 33.9231 12.6636C34.0731 13.114 33.9231 13.7145 34.0731 14.24C33.6233 14.4652 33.0235 14.0899 32.4987 14.0899C31.9739 14.0899 30.7745 14.24 29.7249 14.3151C29.1358 14.4752 28.5148 14.4752 27.9257 14.3151C27.4759 14.5403 26.9511 14.1649 26.5013 14.5403C26.2764 14.3151 25.9015 14.7655 25.6766 14.3901C25.1144 13.647 25.939 12.9714 26.5762 12.4384ZM33.0985 20.0951C32.3488 20.0951 31.749 20.6957 31.0743 20.6957C30.6173 20.8544 30.13 20.9057 29.6499 20.8458C29.0502 20.8458 28.3005 20.8458 28.2255 20.6957C27.4759 20.9209 26.8761 20.3203 26.4263 19.8699C26.2764 19.4196 25.8266 18.6689 25.9765 18.1434C27.026 17.7681 28.5254 17.9933 29.7249 17.9182C29.9498 17.9182 30.3246 17.7681 30.4746 17.7681C31.2243 18.1434 33.8482 17.7681 34.0731 17.7681C33.8107 18.5263 34.0731 20.1027 33.061 20.1027L33.0985 20.0951ZM33.9981 16.7923C32.622 16.7659 31.2454 16.816 29.8748 16.9424H29.7249C29.1252 16.7923 26.5013 16.9424 25.9765 17.3177C25.6016 17.0925 25.7516 16.492 25.6016 15.9665C25.4517 15.4411 26.2014 15.5912 26.5762 15.366C26.9511 15.5912 28.3755 15.5912 29.7249 15.5161C31.0743 15.4411 32.7236 15.1408 32.9485 15.1408C33.0259 15.0869 33.1136 15.0498 33.2061 15.0319C33.2987 15.0141 33.3939 15.0158 33.4857 15.037C33.5775 15.0582 33.6639 15.0985 33.7392 15.1551C33.8145 15.2118 33.8772 15.2836 33.9231 15.366C33.9606 15.8239 34.2605 16.4244 33.9606 16.7998L33.9981 16.7923Z" fill="white"/>
<path d="M38.2338 9.43579C38.0839 8.98539 32.2363 8.83526 30.8869 9.06046C30.2872 8.61006 31.0369 7.70927 30.8869 7.10875C31.1118 6.13289 33.8856 6.35809 34.7103 6.35809C35.46 6.58328 36.1347 6.35808 36.8844 6.58328C37.1093 6.43315 37.859 6.58328 37.859 6.20795C37.709 5.60742 37.1093 5.60742 36.6595 5.45729C34.7103 5.60742 32.6862 5.4573 30.662 5.60743H29.6125C27.436 5.7226 25.2536 5.64724 23.0902 5.38223C22.7154 5.60742 21.8907 5.60742 22.0407 6.20795C22.1906 6.20795 22.1906 6.35809 22.2656 6.35809C22.5224 6.48007 22.8069 6.53186 23.0902 6.50822C24.6646 6.88355 27.6633 6.35809 29.3876 6.65835C29.5146 6.96936 29.5905 7.2989 29.6125 7.6342C29.6125 8.00953 29.6125 8.83526 29.3876 9.06046C28.338 8.83526 24.6646 8.68513 23.4651 9.21059C22.5383 9.01319 21.5741 9.09147 20.6912 9.43579C20.6498 9.51313 20.6268 9.59899 20.6239 9.6867C20.621 9.77441 20.6384 9.86161 20.6747 9.9415C20.7109 10.0214 20.7651 10.0918 20.833 10.1473C20.9009 10.2028 20.9806 10.2419 21.0661 10.2615C22.0407 10.4116 24.4396 9.88619 25.6391 10.0363C26.6137 9.81112 28.413 10.0363 29.6125 10.0363C30.0183 10.0655 30.4258 10.0145 30.8119 9.88618C31.8615 9.73605 37.1843 10.1114 38.0839 9.88618C38.2338 9.81862 38.3837 9.66849 38.2338 9.43579Z" fill="white"/>
<path d="M33.9606 34.2901V31.5127C33.9606 31.5127 33.8107 31.3626 33.7357 31.3626H33.136C33.1457 31.5264 33.092 31.6877 32.986 31.8129V32.5636C32.986 32.7888 32.8361 33.1641 32.8361 33.3893C32.8588 33.7217 32.8076 34.055 32.6861 34.3652C32.2363 34.5904 31.4867 34.7405 31.2617 33.5395V31.888L30.8869 31.5127H30.1372V33.4569C30.1229 33.6679 30.1754 33.878 30.2872 34.0574C30.3946 34.2439 30.4706 34.4468 30.5121 34.6579C30.5121 34.8831 30.662 35.0333 30.662 35.1083C30.7126 35.1801 30.7802 35.2382 30.8587 35.2775C30.9372 35.3168 31.0241 35.336 31.1118 35.3335C31.2618 35.4837 31.4867 35.4837 31.7116 35.5587C31.9234 35.5274 32.1391 35.5814 32.3113 35.7089C32.5362 35.7089 32.6861 35.7089 32.7611 35.859V36.3845C32.7611 36.4595 32.7611 36.5346 32.911 36.5346L33.136 36.7598H33.3609L33.7357 36.6097C33.7357 36.3845 33.8856 36.0091 33.8856 35.7839C34.0356 35.7839 34.0356 35.9341 34.1105 35.9341H35.0851C35.31 35.9341 35.46 35.7839 35.6849 35.5587C35.9329 35.2383 36.1348 34.8845 36.2846 34.5078C36.4682 34.0561 36.5452 33.568 36.5095 33.0816C36.5439 32.7243 36.4925 32.364 36.3596 32.0306C36.2097 31.8805 36.2097 31.8805 36.2097 31.8054L36.0597 31.6553H35.6099C35.6099 31.8054 35.46 31.8805 35.46 32.0306C35.46 32.1808 35.31 32.2558 35.31 32.406C35.31 32.5561 35.46 32.7813 35.46 33.0065C35.4094 33.2634 35.3341 33.5148 35.2351 33.7571C35.0102 34.8906 34.5604 34.4403 33.9606 34.2901Z" fill="white"/>
<path d="M27.6633 43.9661H27.1385C27.0987 43.9661 27.0606 43.9819 27.0325 44.0101C27.0044 44.0382 26.9886 44.0764 26.9886 44.1162C26.9886 44.2664 26.8386 44.2664 26.8386 44.3414C26.8484 44.5053 26.7947 44.6666 26.6887 44.7918C26.5745 45.4502 26.4243 46.1017 26.2389 46.7436C26.1348 47.1118 25.9836 47.4651 25.7891 47.7945C25.5331 48.2909 25.2046 48.7463 24.8145 49.1457C24.4396 49.521 23.8399 49.8963 23.615 50.1215C23.3917 50.294 23.1371 50.4214 22.8653 50.4969C22.8653 50.647 22.7154 50.647 22.7154 50.7221V51.4727C22.8222 51.5746 22.9502 51.6515 23.0902 51.6979C23.1603 51.7072 23.2316 51.6982 23.2972 51.6719C23.3629 51.6456 23.4207 51.6029 23.4651 51.5478C23.615 51.5478 23.69 51.3976 23.9149 51.3226C24.1398 51.2475 24.2897 51.0974 24.5146 50.9473C24.7395 50.7971 24.7395 50.7221 24.8895 50.7221C25.1923 50.3519 25.5178 50.0009 25.864 49.6711C26.0446 49.4525 26.2454 49.2514 26.4638 49.0706C26.6567 48.8488 26.8089 48.5947 26.9136 48.3199C27.236 47.6997 27.4875 47.045 27.6633 46.3682C27.7937 45.9289 27.8693 45.475 27.8882 45.017V44.0412C27.7382 44.1163 27.7382 44.1162 27.6633 43.9661Z" fill="white"/>
<path d="M33.5858 43.1479H34.5604C35.0102 43.1479 35.385 42.9978 35.6099 42.9978C37.784 42.2471 35.6099 41.9468 34.5604 42.3972H30.4371V42.0219C30.4371 41.7967 30.2872 41.046 30.2872 40.8209C30.2872 40.5957 30.4371 40.4455 30.4371 40.2203V39.845C30.4371 39.3946 30.587 39.0943 30.4371 38.8691C30.2444 38.6394 29.9805 38.4809 29.6874 38.4187C29.5375 38.4187 29.3126 38.7941 29.2376 39.0193C29.1996 39.3434 29.1996 39.671 29.2376 39.9951L29.3876 42.3222C28.5629 42.3222 27.3634 42.5474 26.2389 42.4723H25.8266C25.1907 42.3077 24.5309 42.2569 23.8774 42.3222C23.2776 42.4723 22.8278 42.7726 23.8774 43.1479C24.1023 43.1479 24.2522 43.298 24.6271 43.298H29.2751V51.4052C29.2751 51.5553 29.2751 51.5553 29.425 51.6304L29.575 51.7805C29.6147 51.7805 29.6529 51.7963 29.681 51.8245C29.7091 51.8526 29.7249 51.8908 29.7249 51.9306H30.0997C30.2497 51.9306 30.3247 51.7805 30.4746 51.7054V43.3731H33.0235C33.0964 43.2985 33.1841 43.2399 33.2809 43.2011C33.3777 43.1623 33.4816 43.1442 33.5858 43.1479Z" fill="white"/>
<path d="M23.9149 39.7699C24.1982 39.7301 24.4753 39.6544 24.7395 39.5447C24.9257 39.4372 25.1284 39.3611 25.3393 39.3195C25.7141 39.1694 26.0889 39.0943 26.3888 38.9442C26.7613 38.7292 27.1665 38.5771 27.5883 38.4938C28.338 38.2686 29.0127 37.6681 29.9123 37.518C30.5121 37.3678 31.8615 38.1185 32.4613 38.3437C32.8361 38.5689 33.2109 38.719 33.5108 38.9442C34.0006 39.1648 34.4763 39.4155 34.9352 39.6949C35.1957 39.8051 35.4773 39.8564 35.7599 39.845H36.5095C36.5095 38.4938 36.5095 39.0193 35.0851 38.4187C34.5445 38.0964 33.9651 37.8442 33.3609 37.6681C33.3609 37.6681 33.2109 37.518 33.136 37.518C32.5479 37.2842 31.9472 37.0837 31.3367 36.9174C30.8869 36.6922 29.9873 36.5421 29.6125 36.3169C29.2376 36.467 29.0127 36.5421 28.413 36.7673C27.8132 36.9925 27.3634 37.2177 26.4638 37.518C26.3139 37.6681 26.0889 37.6681 26.014 37.7432C25.5229 37.9023 25.0464 38.1032 24.5896 38.3437C24.1308 38.5405 23.6537 38.6914 23.1652 38.7941C23.0634 38.901 22.9866 39.0292 22.9403 39.1694C23.3151 39.7699 23.0902 39.6198 23.9149 39.7699Z" fill="white"/>
<path d="M36.4346 50.7221C35.9298 50.5503 35.4712 50.2646 35.0943 49.8872C34.7173 49.5097 34.432 49.0506 34.2605 48.5451C34.1105 48.3199 34.0356 47.9446 33.8107 47.5693C33.8107 47.4192 33.6607 47.4192 33.6607 47.3441C33.5108 47.1189 33.4358 46.7436 33.2109 46.2932C32.986 45.8428 32.986 45.3173 32.8361 44.942C32.6862 44.5666 32.6862 44.1913 32.6112 44.1162C32.5714 44.1162 32.5333 44.1004 32.5052 44.0723C32.477 44.0441 32.4613 44.0059 32.4613 43.9661C32.3113 43.9661 32.3113 43.9661 32.2363 43.816H31.9365C31.7976 43.986 31.7185 44.197 31.7116 44.4165V45.1672C31.8386 45.4782 31.9145 45.8077 31.9365 46.143C32.131 46.6032 32.2816 47.0807 32.3863 47.5693C32.6112 48.0197 32.6112 48.395 32.8361 48.7703C33.0018 49.1155 33.2028 49.4425 33.4358 49.7462C33.6716 49.9655 33.8737 50.2184 34.0356 50.4969C34.2715 50.8085 34.549 51.0864 34.8602 51.3226C35.2351 51.5478 35.46 51.773 35.6849 51.773C35.7673 51.8468 35.8741 51.8877 35.9848 51.8877C36.0954 51.8877 36.2022 51.8468 36.2846 51.773V51.5478L36.4346 51.3976H36.5845C36.8094 51.255 36.5845 50.8797 36.4346 50.7221Z" fill="white"/>
<path d="M24.0648 32.0381C24.0598 31.9517 24.0373 31.8672 23.9986 31.7898C23.9599 31.7124 23.9059 31.6436 23.8399 31.5877H23.3901C23.3503 31.5877 23.3122 31.6036 23.2841 31.6317C23.256 31.6599 23.2402 31.6981 23.2402 31.7379V34.0649C23.3588 34.4038 23.5094 34.7305 23.69 35.0408C23.8589 35.3607 24.1201 35.6223 24.4396 35.7914C24.6976 35.9186 24.9776 35.995 25.2643 36.0166H25.864C25.864 36.392 26.014 36.7673 26.014 37.0676H26.3138C26.4638 37.0676 26.4638 36.9174 26.5388 36.9174C26.6137 36.9174 26.6887 36.7673 26.6887 36.7673V36.3169C26.6887 36.1668 26.6887 36.0917 26.8386 36.0917V35.9416H27.2884C27.5471 35.9572 27.8054 35.9055 28.0381 35.7914C28.2803 35.6514 28.5306 35.526 28.7878 35.4161C29.0058 35.1809 29.2062 34.93 29.3876 34.6654V32.4885C29.3876 32.2633 29.3876 32.1132 29.2376 32.0381C29.2376 31.888 29.0877 31.888 29.0877 31.8129H28.7128C28.5629 31.8129 28.5629 31.9631 28.4879 32.0381V33.7647C28.3801 33.9751 28.2547 34.176 28.1131 34.3652C27.3634 35.341 27.5133 34.5153 26.6887 34.5904V33.1641C26.6887 32.9389 26.6887 32.5636 26.5388 32.4135V31.9556C26.3888 31.9556 26.3888 31.8054 26.3138 31.8054H25.7141V33.9073C25.7141 34.0574 25.864 34.1325 25.864 34.2826C25.0394 34.733 24.6645 34.733 24.2897 33.6821C24.2036 33.5786 24.1393 33.4588 24.1006 33.3298C24.062 33.2008 24.0498 33.0653 24.0648 32.9314C24.141 32.6386 24.141 32.331 24.0648 32.0381Z" fill="white"/>
</g>
<defs>
<clipPath id="clip0_25_21">
<rect width="59" height="74" fill="white"/>
</clipPath>
</defs>
</svg>
