<svg width="78" height="82" viewBox="0 0 78 82" fill="none" xmlns="http://www.w3.org/2000/svg">
<path d="M41.3089 33.9861C41.3074 33.9855 41.3055 33.9848 41.304 33.9842C40.7948 33.7771 40.5502 33.1966 40.7572 32.6876L47.0235 17.2834C47.2305 16.7744 47.8314 16.5411 48.3201 16.7365C48.8293 16.9437 49.0739 17.5241 48.8669 18.0331L42.6006 33.4374C42.3942 33.9447 41.8167 34.1895 41.3089 33.9861Z" fill="white" fill-opacity="0.4"/>
<path d="M36.7606 45.1781C34.3127 44.1978 33.1189 41.409 34.099 38.9613C35.0792 36.5136 37.868 35.3196 40.3157 36.2997C42.7632 37.2798 43.9572 40.0687 42.9771 42.5164C41.9969 44.9643 39.2083 46.1582 36.7606 45.1781ZM39.5759 38.1473C38.1467 37.575 36.5186 38.2721 35.9463 39.7013C35.374 41.1305 36.0711 42.7586 37.5003 43.3309C38.9291 43.903 40.5571 43.206 41.1294 41.7768C41.7019 40.3476 41.0049 38.7196 39.5759 38.1473Z" fill="white" fill-opacity="0.4"/>
<path d="M25.0073 52.2218C24.8526 52.1599 24.713 52.059 24.6037 51.9239C24.3514 51.6117 24.3114 51.1782 24.5022 50.8249L29.2126 42.1127L22.1261 35.3402C21.8357 35.0627 21.7408 34.6382 21.8847 34.2633C22.0291 33.8887 22.3843 33.6373 22.7856 33.6261L32.6857 33.3494L35.0075 23.8259C35.1027 23.4356 35.4227 23.141 35.8193 23.0786C36.2157 23.016 36.6113 23.1974 36.8217 23.5402L42.0114 31.9755L51.4197 29.2246C51.8053 29.1119 52.2197 29.2418 52.473 29.5541C52.7253 29.8662 52.7653 30.2998 52.5745 30.653L47.864 39.3653L54.9506 46.1375C55.241 46.415 55.336 46.8395 55.192 47.2145C55.0477 47.5891 54.6924 47.8404 54.2909 47.8515L44.3909 48.1282L42.0691 57.6518C41.9738 58.042 41.6538 58.3367 41.2572 58.3991C40.8607 58.4611 40.4653 58.2795 40.2548 57.9375L35.0651 49.5022L25.6568 52.2533C25.4381 52.3171 25.2102 52.3031 25.0073 52.2218ZM25.2246 35.5488L31.1364 41.1984C31.4605 41.5082 31.5375 41.9966 31.3243 42.391L27.3868 49.6737L35.2353 47.3788C35.6658 47.2527 36.127 47.4299 36.3622 47.8125L40.7004 54.8638L42.6374 46.9192C42.7435 46.4833 43.1281 46.1726 43.5763 46.1603L51.8518 45.9288L45.9401 40.2794C45.616 39.9696 45.5389 39.4812 45.7522 39.0868L49.6896 31.8042L41.8412 34.0988C41.4104 34.2244 40.9492 34.0473 40.7143 33.6651L36.3762 26.6138L34.4392 34.5585C34.3331 34.9943 33.9484 35.305 33.5002 35.3174L25.2246 35.5488Z" fill="white" fill-opacity="0.4"/>
<path d="M44.7841 25.2309C44.5942 25.1549 44.4275 25.0204 44.313 24.839L41.2928 20.0613C40.9992 19.5968 41.1375 18.982 41.602 18.6884C42.0665 18.3947 42.6818 18.5336 42.9748 18.9976L45.6085 23.164L50.5598 21.8983C51.0923 21.7622 51.6342 22.0833 51.7703 22.6159C51.9065 23.1483 51.5851 23.6902 51.0527 23.8264L45.4007 25.2714C45.1904 25.3249 44.9754 25.3075 44.7841 25.2309Z" fill="white" fill-opacity="0.4"/>
<path d="M33.0895 35.1045C32.9312 35.0411 32.7873 34.9361 32.6751 34.7916L22.4678 21.6627C22.1304 21.2288 22.2086 20.6036 22.6424 20.2664C23.0764 19.9288 23.7007 20.0069 24.0388 20.4411L34.246 33.5699C34.5834 34.0038 34.5052 34.629 34.0714 34.9662C33.7818 35.1913 33.4071 35.2316 33.0895 35.1045Z" fill="white" fill-opacity="0.4"/>
<path d="M21.5983 27.9449C21.2455 27.8036 20.9899 27.4652 20.9738 27.0607C20.9517 26.5116 21.3789 26.0485 21.9279 26.0266L26.8528 25.8289L28.2323 20.9081C28.3805 20.379 28.9298 20.0703 29.4589 20.2185C29.9904 20.3706 30.2971 20.9164 30.1486 21.4451L28.5738 27.0625C28.4573 27.4781 28.0866 27.771 27.6557 27.7883L22.0078 28.015C21.8632 28.0208 21.7247 27.9955 21.5983 27.9449Z" fill="white" fill-opacity="0.4"/>
<path d="M13.4771 45.0567C13.156 44.9281 12.9111 44.6357 12.8605 44.2688C12.7851 43.7243 13.1655 43.222 13.7098 43.1468L30.1833 40.8716C30.7289 40.7972 31.2302 41.177 31.3053 41.7209C31.3806 42.2654 31.0002 42.7677 30.456 42.8429L13.9825 45.1179C13.805 45.1426 13.6322 45.1188 13.4771 45.0567Z" fill="white" fill-opacity="0.4"/>
<path d="M18.0043 49.1546C17.9728 49.142 17.9413 49.1276 17.9107 49.1114C17.424 48.856 17.2367 48.2546 17.4922 47.7682L19.7832 43.404L16.2115 39.749C15.8274 39.3557 15.8349 38.726 16.2278 38.3416C16.6211 37.9581 17.25 37.9664 17.6352 38.358L21.7122 42.5304C22.0134 42.8389 22.0818 43.3063 21.8814 43.6884L19.2541 48.693C19.0149 49.1486 18.472 49.3419 18.0043 49.1546Z" fill="white" fill-opacity="0.4"/>
<path d="M28.7616 64.7433C28.7601 64.7427 28.7582 64.742 28.7567 64.7414C28.2475 64.5343 28.0029 63.9538 28.2099 63.4448L34.4762 48.0408C34.6826 47.5333 35.2599 47.2886 35.7678 47.492C35.7693 47.4926 35.7712 47.4934 35.7727 47.494C36.2819 47.7011 36.5265 48.2815 36.3195 48.7905L30.0533 64.1946C29.8469 64.7019 29.2694 64.9467 28.7616 64.7433Z" fill="white" fill-opacity="0.4"/>
<path d="M25.9015 59.5395C25.6169 59.4256 25.3884 59.1817 25.3065 58.862C25.1703 58.3297 25.4918 57.7877 26.0241 57.6515L31.6761 56.2066C32.0942 56.0999 32.5333 56.2742 32.7636 56.6388L35.7841 61.4165C36.0779 61.881 35.9395 62.4955 35.4749 62.7893C35.0103 63.0838 34.3958 62.9448 34.1021 62.4801L31.4681 58.314L26.5168 59.5797C26.3046 59.6341 26.0907 59.6153 25.9015 59.5395Z" fill="white" fill-opacity="0.4"/>
<path d="M53.4524 61.3494C53.294 61.286 53.1502 61.181 53.0379 61.0365L42.8306 47.9076C42.4932 47.4738 42.5715 46.8485 43.0053 46.5113C43.4389 46.174 44.064 46.252 44.4016 46.686L54.6089 59.8148C54.9463 60.2487 54.868 60.8739 54.4342 61.2111C54.1445 61.4364 53.7699 61.4765 53.4524 61.3494Z" fill="white" fill-opacity="0.4"/>
<path d="M47.515 61.2244C47.0494 61.0379 46.7895 60.5264 46.9279 60.0327L48.5026 54.4156C48.6191 54.0001 48.9895 53.7071 49.4206 53.6899L55.0686 53.4629C55.6179 53.4406 56.0806 53.8679 56.1027 54.4171C56.1249 54.966 55.6977 55.4292 55.1486 55.4511L50.2235 55.6493L48.8441 60.5698C48.696 61.0989 48.1466 61.4076 47.6175 61.2595C47.5822 61.249 47.5482 61.2377 47.515 61.2244Z" fill="white" fill-opacity="0.4"/>
<path d="M46.3878 40.5448C46.0667 40.4162 45.8218 40.1238 45.7712 39.7566C45.6959 39.2121 46.0763 38.7098 46.6205 38.6347L63.0941 36.3592C63.6394 36.2845 64.141 36.6648 64.2161 37.2085C64.2914 37.7533 63.911 38.2553 63.3668 38.3305L46.8932 40.6059C46.7157 40.6306 46.5427 40.6068 46.3878 40.5448Z" fill="white" fill-opacity="0.4"/>
<path d="M50.749 10.6559C49.5283 10.1671 48.1372 10.7625 47.6483 11.9833C47.1595 13.2042 47.7549 14.5953 48.9757 15.0842C50.1966 15.573 51.5877 14.9776 52.0767 13.7566C52.5655 12.5357 51.9698 11.1447 50.749 10.6559Z" fill="white" fill-opacity="0.4"/>
<path d="M21.9401 15.5232C21.128 14.4893 19.6253 14.3098 18.5912 15.1225C18.0905 15.5164 17.7728 16.0815 17.6971 16.714C17.6214 17.3464 17.7964 17.9706 18.1903 18.4713C18.4525 18.805 18.791 19.0573 19.1747 19.211C19.3668 19.2879 19.5704 19.34 19.7817 19.3654C20.4142 19.4411 21.0385 19.2659 21.5391 18.8722C22.5731 18.0593 22.7529 16.5569 21.9401 15.5232Z" fill="white" fill-opacity="0.4"/>
<path d="M10.1702 42.9569C9.66026 42.5764 9.03262 42.4147 8.40143 42.5054C7.09973 42.6926 6.19293 43.904 6.38001 45.2054C6.47048 45.8359 6.80128 46.3936 7.31119 46.7753C7.48154 46.9031 7.66492 47.0056 7.8573 47.0827C8.24099 47.2363 8.65988 47.2872 9.07992 47.2268C9.71051 47.1363 10.2682 46.8055 10.6498 46.2953C11.0317 45.7855 11.1919 45.1572 11.1011 44.5268C11.0108 43.8965 10.6802 43.3389 10.1702 42.9569Z" fill="white" fill-opacity="0.4"/>
<path d="M28.1007 66.3939C26.8799 65.905 25.4888 66.5004 24.9998 67.7215C24.511 68.9424 25.1063 70.3334 26.3274 70.8224C27.5481 71.3112 28.939 70.7157 29.4279 69.4946C29.9169 68.2735 29.3214 66.8827 28.1007 66.3939Z" fill="white" fill-opacity="0.4"/>
<path d="M58.8863 63.0065C58.4927 62.5058 57.9274 62.1891 57.2948 62.1124C56.6623 62.0369 56.038 62.2121 55.5374 62.6058C54.5036 63.4183 54.324 64.9208 55.1367 65.9547C55.3989 66.2883 55.7374 66.5407 56.1209 66.6942C56.3133 66.7713 56.517 66.8232 56.7282 66.8488C57.3607 66.9242 57.985 66.749 58.4856 66.3554C58.9862 65.9617 59.3039 65.3965 59.3796 64.7641C59.4554 64.1314 59.2802 63.5072 58.8863 63.0065Z" fill="white" fill-opacity="0.4"/>
<path d="M66.9063 38.5207C67.0765 38.6483 67.2601 38.751 67.4522 38.8279C67.8361 38.9817 68.255 39.0326 68.6751 38.9721C69.9768 38.7849 70.8835 37.5738 70.6965 36.2722C70.509 34.9701 69.2984 34.0639 67.9966 34.2508C66.6949 34.438 65.7882 35.6491 65.9752 36.9507C66.0655 37.5815 66.3961 38.1391 66.9063 38.5207Z" fill="white" fill-opacity="0.4"/>
<path d="M59.7832 43.3483C59.6585 43.2984 59.5419 43.222 59.442 43.1201L55.3649 38.9478C55.0635 38.6392 54.9951 38.1718 55.1955 37.7898L57.8228 32.7851C58.0781 32.2985 58.6812 32.1078 59.166 32.3666C59.6526 32.622 59.84 33.2235 59.5845 33.7098L57.2934 38.074L60.8651 41.7288C61.2493 42.1222 61.2421 42.7519 60.849 43.136C60.5582 43.4201 60.1376 43.4902 59.7832 43.3483Z" fill="white" fill-opacity="0.4"/>
</svg>
